<?xml version="1.0" encoding="utf-8"?>
<!-- Generator: Adobe Illustrator 26.3.1, SVG Export Plug-In . SVG Version: 6.00 Build 0)  -->
<svg version="1.1" id="Шар_1" xmlns="http://www.w3.org/2000/svg" xmlns:xlink="http://www.w3.org/1999/xlink" x="0px" y="0px"
	 viewBox="0 0 631 367" style="enable-background:new 0 0 631 367;" xml:space="preserve">
<style type="text/css">
	.st0{fill:url(#SVGID_1_);}
	.st1{fill:url(#SVGID_00000152227796517129154340000004317556787065905835_);}
	.st2{fill:url(#SVGID_00000088839972056014852490000006057329204491258788_);}
	.st3{fill:url(#SVGID_00000019655734285962400200000016495047669359230638_);}
	.st4{fill:url(#SVGID_00000044141989595623106540000015234091580038790800_);}
	.st5{fill:url(#SVGID_00000026860249909944533770000013496239451518198673_);}
	.st6{fill:url(#SVGID_00000023979316659464348450000003971168081924243901_);}
	.st7{fill:url(#SVGID_00000129912137985422439920000010373420109357492656_);}
	.st8{fill:url(#SVGID_00000089554455421093929210000002858233894290052247_);}
	.st9{fill:url(#SVGID_00000031886567567486679230000000367554729425557942_);}
	.st10{fill:url(#SVGID_00000167379995460512907980000002684192738906337689_);}
	.st11{fill:url(#SVGID_00000091011826081966340090000009585460284953489808_);}
	.st12{fill:url(#SVGID_00000172411996262723336630000017239342878442751914_);}
	.st13{fill:url(#SVGID_00000007424589943118399600000001717558068332526771_);}
	.st14{fill:url(#SVGID_00000008127759315663643420000018155687139377521032_);}
	.st15{fill:url(#SVGID_00000145023853632058357430000005067994680833077689_);}
	.st16{fill:url(#SVGID_00000096750290257578760050000002168155718940853132_);}
	.st17{fill:#94CFCC;}
	.st18{fill:url(#SVGID_00000075161137454112742090000016036621849193348237_);}
	.st19{fill:url(#SVGID_00000171683408943676055960000016691758679438176173_);}
	.st20{fill:url(#SVGID_00000029007103138265448010000002512611362406481292_);}
	.st21{fill:url(#SVGID_00000175295132639372799050000007530727562018506939_);}
	.st22{fill:url(#SVGID_00000077291888820584420270000007621192181651293093_);}
	.st23{fill:url(#SVGID_00000096748525388624811830000014432615081869357990_);}
	.st24{fill:url(#SVGID_00000106866753042579956190000017302210148577303699_);}
	.st25{fill:url(#SVGID_00000170963055715060962230000003057367598059089031_);}
	.st26{fill:url(#SVGID_00000002344713084009009830000003543378728228028070_);}
	.st27{fill:url(#SVGID_00000176042511283161998310000006390352094519804350_);}
	.st28{fill:url(#SVGID_00000014595737147844429230000000213122498460974755_);}
	.st29{fill:url(#SVGID_00000080894583779670209920000007915125860679586195_);}
	.st30{fill:url(#SVGID_00000105400563436701332820000002692920055108919428_);}
	.st31{fill:url(#SVGID_00000020370634418216257140000000516166161077688503_);}
	.st32{fill:url(#SVGID_00000020372367898270979430000008095553312812022952_);}
	.st33{fill:url(#SVGID_00000069386580818447793970000001578718445152503999_);}
	.st34{fill:url(#SVGID_00000028319569976726105800000007081523970304243135_);}
	.st35{fill:url(#SVGID_00000159459008870104035220000009626410672590514098_);}
	.st36{fill:url(#SVGID_00000127007367859900997190000015306276218775134397_);}
	.st37{fill:url(#SVGID_00000142144146541382258230000006025682255191531172_);}
	.st38{fill:url(#SVGID_00000022539693722385216200000000765618555204645513_);}
	.st39{fill:#C39A63;}
	.st40{fill:#191D37;}
	.st41{fill:url(#SVGID_00000034067349984728532290000001171756247454137472_);}
	.st42{fill:url(#SVGID_00000100348417101727752430000010367472119459174061_);}
	.st43{fill:url(#SVGID_00000011012967017082636260000016485755726311255998_);}
	.st44{fill:url(#SVGID_00000039115001427239539560000010438591036225761920_);}
	.st45{fill:url(#SVGID_00000149342296619078374800000003934712546425134505_);}
	.st46{fill:url(#SVGID_00000140709814837293782480000002474795413552260010_);}
	.st47{fill:url(#SVGID_00000079457134039256788800000008851561945788350362_);}
	.st48{fill:url(#SVGID_00000011018221091079191030000004818314829034847926_);}
	.st49{fill:url(#SVGID_00000044165698027769727770000004986268710446660239_);}
	.st50{fill:url(#SVGID_00000079480157272364444080000014225943489594872988_);}
	.st51{fill:url(#SVGID_00000087413971502049937190000002805257691342095497_);}
	.st52{fill:none;}
	.st53{fill:url(#SVGID_00000176738897527967380160000013393758931115615895_);}
	.st54{fill:url(#SVGID_00000165929406895279903070000001624163316430441360_);}
	.st55{fill:url(#SVGID_00000054252725692402217450000007634719357779238309_);}
	.st56{fill:url(#SVGID_00000013898025161157167320000017697807716240236455_);}
	.st57{fill:url(#SVGID_00000167394695437202457020000000407539635442231442_);}
	.st58{fill:url(#SVGID_00000066477183789219263940000010372723399264434847_);}
</style>
<g>
	<g>
		<linearGradient id="SVGID_1_" gradientUnits="userSpaceOnUse" x1="84.0145" y1="331.2617" x2="143.2803" y2="260.6315">
			<stop  offset="0" style="stop-color:#544930"/>
			<stop  offset="0.1638" style="stop-color:#FCCE85"/>
			<stop  offset="0.2297" style="stop-color:#FCCF88;stop-opacity:0.9944"/>
			<stop  offset="0.2743" style="stop-color:#FCD391;stop-opacity:0.9906"/>
			<stop  offset="0.3126" style="stop-color:#FDDAA0;stop-opacity:0.9874"/>
			<stop  offset="0.3474" style="stop-color:#FDE3B5;stop-opacity:0.9845"/>
			<stop  offset="0.3794" style="stop-color:#FEEFD1;stop-opacity:0.9817"/>
			<stop  offset="0.4" style="stop-color:#FFF8E7;stop-opacity:0.98"/>
			<stop  offset="0.4157" style="stop-color:#F6EAD4;stop-opacity:0.9811"/>
			<stop  offset="0.4494" style="stop-color:#E6D1B1;stop-opacity:0.9835"/>
			<stop  offset="0.4853" style="stop-color:#D8BC95;stop-opacity:0.9861"/>
			<stop  offset="0.5236" style="stop-color:#CEAC7F;stop-opacity:0.9888"/>
			<stop  offset="0.5653" style="stop-color:#C7A16F;stop-opacity:0.9918"/>
			<stop  offset="0.6129" style="stop-color:#C29A66;stop-opacity:0.9952"/>
			<stop  offset="0.6799" style="stop-color:#C19863"/>
			<stop  offset="0.7371" style="stop-color:#B48F5D"/>
			<stop  offset="0.8432" style="stop-color:#91764D"/>
			<stop  offset="0.9856" style="stop-color:#5A4D33"/>
			<stop  offset="1" style="stop-color:#544930"/>
		</linearGradient>
		<path class="st0" d="M139.2,257.3c0,1.1-0.3,1.8-1,2.1c-0.3,0.1-0.7,0.2-1.2,0.5c-2.4,2.3-3.5,5.3-3.3,9.2
			c0.1,1.8-0.1,4.4-0.7,7.8c0,0.3-0.1,0.7-0.1,1c0,0.7,0.1,1.7,0.3,2.8c0.3,1.4,0.4,2.3,0.5,2.6c0.1,0.9,0,3.2-0.4,7.1
			c-0.2,1.5-0.4,3.9-0.6,7c0,1,0,2.3,0.1,3.9c0.1,1.8,0.2,3.1,0.2,3.9l0.2,12.1c0.2,2,0.4,4,0.6,5.9c0.3,2.5,0.8,4.7,1.5,6.5
			c0.2,0.7,0.9,1.2,2.1,1.7c0.9,0.3,1.3,0.9,1.3,1.5c0,0.4-0.2,0.9-0.6,1.4h-17.8c-0.2-0.3-0.3-0.8-0.3-1.6c0-0.7,0.3-1.2,0.9-1.7
			c0.7-0.5,1.4-1,2.1-1.5c0.9-0.8,1.4-1.7,1.5-2.6c0.5-4.6,0.9-8.8,1.1-12.5c0-0.8,0-1.8,0-3.3c-0.1-1.7-0.1-2.9-0.1-3.4
			c0-0.4-0.1-12.9-0.3-37.4c-0.1-1.9-0.1-3.4,0-4.6c0.1-0.9-0.1-2.4-0.6-4.5c-1.7,1.8-3.8,2.9-6.1,3.3c-1.8,0.2-3.1,0.3-3.9,0.3
			c-0.2,0-0.5-0.1-1-0.3c-0.5-0.2-0.9-0.2-1-0.2h-8.5c-0.5,0-1.2,0.5-1.9,1.6c-1.1,1.6-1.4,14.4-0.9,38.4c0.2,0.4,0.4,1,0.6,1.9
			c0,0.4,0,1.1-0.1,1.9c-0.1,1-0.2,1.7-0.2,2c0,0.7,0.1,1.8,0.2,3.3c0.1,1.5,0.2,2.2,0.2,2.2v6c0,1.5,0.3,3.3,0.8,5.1
			c0.7,2.4,1.6,3.9,2.6,4.5c0.7,0.1,1.5,0.6,2.4,1.2c0.1,1.5-0.5,2.3-1.9,2.3c-0.6,0-1.4-0.2-2.3-0.5h-7.8c-0.2,0.2-0.4,0.4-0.4,0.5
			c-0.3,0-1,0-2.2,0.1c-0.9,0.1-1.7,0.1-2.2,0c-0.2,0-0.7-0.1-1.3-0.2c-0.7-0.1-1.2-0.2-1.5-0.2c-0.2-1.4,0.4-2.4,1.7-3.1
			c1.9-0.9,3.2-2.5,3.7-4.7c0.2-1.8,0.3-3.5,0.5-5.3c0.4-3.7,0.6-6.5,0.6-8.4c0-0.3-0.1-1-0.4-1.9c-0.3-1.1-0.5-1.9-0.6-2.3
			c0-0.5,0-1.3,0.2-2.5c0.2-1.2,0.3-1.8,0.3-1.9l0-10.5c0-0.1,0.1-0.4,0.3-1c0.2-0.5,0.3-0.9,0.3-1.1c0-0.5-0.3-2.2-0.8-5.2
			c0,0,0.1-1.5,0.3-4.3c0.1-1.6,0.1-3,0-4.3c0-0.1,0-0.3-0.1-0.5c-0.1-0.3-0.1-0.5-0.1-0.6v-8.9c0-0.7-0.3-2-1-3.8
			c-0.7-1.9-1.4-3-1.9-3.2c-1.1-0.4-1.8-0.9-2.2-1.4c-0.1-0.2-0.2-0.7-0.1-1.3c0.1-0.7,0.4-1.2,0.9-1.4c0.5-0.2,1.7-0.4,3.8-0.6
			c2.1-0.2,3.6-0.4,4.6-0.4h8.2c1.4,0.6,4.2,0.8,8.3,0.6c4.1-0.2,6.4-0.3,6.7-0.3c1.3-0.1,2.8-0.1,4.3,0.2c0.3,0.2,0.8,0.5,1.5,0.8
			c0.7,0,1.5-0.1,2.5-0.5c1.2-0.5,2.1-0.8,2.5-0.9c0.5,0,1.3,0,2.4-0.1c0.8-0.1,1.5-0.2,1.9-0.2
			C137.3,255.8,138.4,256.3,139.2,257.3z M95.5,278.1c-0.1-0.8-0.1-1.9-0.1-3.3c0.4-3.5,0.3-7-0.5-10.6c-0.1-0.4-0.5-1.1-1.1-2.1
			c0.4,3,0.6,5.4,0.6,7.2v8.7c0,2.7,0.1,5.4,0.3,7.9C95.2,282.5,95.4,279.9,95.5,278.1z"/>
		
			<linearGradient id="SVGID_00000041289733619674903020000000044197315151090097_" gradientUnits="userSpaceOnUse" x1="141.8034" y1="322.2083" x2="174.8622" y2="282.8103">
			<stop  offset="0" style="stop-color:#544930"/>
			<stop  offset="0.1638" style="stop-color:#FCCE85"/>
			<stop  offset="0.2297" style="stop-color:#FCCF88;stop-opacity:0.9944"/>
			<stop  offset="0.2743" style="stop-color:#FCD391;stop-opacity:0.9906"/>
			<stop  offset="0.3126" style="stop-color:#FDDAA0;stop-opacity:0.9874"/>
			<stop  offset="0.3474" style="stop-color:#FDE3B5;stop-opacity:0.9845"/>
			<stop  offset="0.3794" style="stop-color:#FEEFD1;stop-opacity:0.9817"/>
			<stop  offset="0.4" style="stop-color:#FFF8E7;stop-opacity:0.98"/>
			<stop  offset="0.4157" style="stop-color:#F6EAD4;stop-opacity:0.9811"/>
			<stop  offset="0.4494" style="stop-color:#E6D1B1;stop-opacity:0.9835"/>
			<stop  offset="0.4853" style="stop-color:#D8BC95;stop-opacity:0.9861"/>
			<stop  offset="0.5236" style="stop-color:#CEAC7F;stop-opacity:0.9888"/>
			<stop  offset="0.5653" style="stop-color:#C7A16F;stop-opacity:0.9918"/>
			<stop  offset="0.6129" style="stop-color:#C29A66;stop-opacity:0.9952"/>
			<stop  offset="0.6799" style="stop-color:#C19863"/>
			<stop  offset="0.7371" style="stop-color:#B48F5D"/>
			<stop  offset="0.8432" style="stop-color:#91764D"/>
			<stop  offset="0.9856" style="stop-color:#5A4D33"/>
			<stop  offset="1" style="stop-color:#544930"/>
		</linearGradient>
		<path style="fill:url(#SVGID_00000041289733619674903020000000044197315151090097_);" d="M179.4,316c-0.4,0.2-1.1,0.3-1.9,0.2
			c-1.4-0.1-2.1-0.2-2-0.2h-2.9c-3.5,0-6.3,0.2-8.3,0.5c-1.1,0.2-1.8,0.1-2.2-0.3c0-0.7,0-1.4,0.1-1.9c0.5,0,1.2-0.2,2.1-0.5
			c0.4-0.2,0.6-0.6,0.8-1.1c0.2-0.5,0.2-0.9,0.1-1.2c-0.3-1.4-0.8-3.5-1.5-6.4c0-0.2-0.3-0.9-0.8-2.1c-0.4-1-0.6-1.7-0.6-2.2
			c0-0.1-0.2-0.2-0.5-0.2c-0.4,0-2.4,0.1-6,0.3L148,301c-0.6,0-1.1,0.5-1.6,1.5c-0.2,0.5-0.6,1.3-1,2.4c-0.6,1.7-0.8,2.7-0.8,3
			c0-0.2-0.1,0.6-0.4,2.2c-0.2,1.2-0.2,1.9,0,2.3c0.1,0.2,0.5,0.6,1.1,1.2c0.6,0.5,1.2,0.9,1.7,1.1c0.1,0,0.3,0.1,0.6,0.2
			c0.2,0.3,0.4,0.6,0.5,0.8c-0.5,0.1-1.2,0.3-2.1,0.5c-1.4-0.1-3.5-0.2-6.1-0.3c-0.6,0.2-1.4,0.3-2.6,0.5c0,0-0.9-0.1-2.7-0.3
			c0-0.1-0.1-0.2-0.1-0.3c0-0.3,0.4-0.7,1.1-1.2c0.3-0.4,0.7-0.8,1.4-1.4c0.6-0.4,1.1-1,1.5-1.9c0.4-0.9,1.1-2.3,1.9-4.2
			c0.4-1.2,0.9-2.9,1.7-5.3c0.5-1.1,1.1-2.8,1.9-5.1c0.6-1.7,1.4-4.2,2.5-7.5c0.1-0.1,0.2-0.2,0.4-0.4c0.1,0.4,0.2,0.6,0.3,0.6
			c0.2,0,0.4-0.5,0.7-1.6c0.2-1,0.4-1.6,0.4-2.1c0-0.1,0-0.1,0-0.1c0,0.1-0.1,0.3-0.3,0.7c0-0.2,0-0.6,0.1-1c0.4-1,0.9-2.5,1.7-4.5
			c0.2-1,0.7-2.4,1.6-4.3c0.1-0.4,0.3-1.1,0.6-1.9c0.2-0.7,0.6-1.8,1.3-3.3c0.1-0.3,0.3-0.8,0.6-1.4c0.1-0.2,0.7-0.2,1.7-0.1
			c1,0,2.4,0.1,4.3,0.3c0.6,1.8,1.8,4.8,3.4,8.8c0,0.5,0.2,1.2,0.4,2.1c0.4,1.2,0.9,2.2,1.5,3.2c-0.1,0.2,0,0.8,0.3,1.9
			c0.4,0.9,1,2.2,1.7,3.9c0.5,1.7,1.3,4,2.4,7c0.1,0.7,0.3,1.7,0.7,2.9c0,0.2,0.1,0.5,0.2,0.9c0.3,0.6,0.8,1.9,1.6,3.7
			c0.3,0.4,0.6,1,1.1,1.8c0,0.2,0,0.5,0.1,0.8c0.3,1,0.9,2.4,1.6,4.2c0.2,0.4,0.7,1.2,1.2,2.3c0.1,0.3,0.8,0.7,2.1,1.1
			c0.4,0.1,0.9,0.3,1.6,0.6V316z M160.5,296.8c0,0-0.9-2.5-2.7-7.3c-0.3-1-0.7-2.4-1.4-4.4c-0.3-0.6-0.7-1.4-1.2-2.5
			c-0.1-0.5-0.4-1.2-0.8-2.2c-0.9,2-1.9,4-2.9,6.1c-0.1,0.1-0.3,0.4-0.5,0.7c-0.1,0.4-0.2,0.9-0.4,1.7c-0.2,0.3-0.4,0.8-0.6,1.5
			c0,0.4-0.1,1-0.2,1.6c-0.2,0.2-0.4,0.6-0.6,1c-0.1,0.6-0.3,1.4-0.6,2.4c-0.1,0.2-0.3,0.5-0.5,0.8c0-0.3,0.1-0.1,0.1,0.6H160.5z"/>
		
			<linearGradient id="SVGID_00000112604549177247741660000007452418838340714126_" gradientUnits="userSpaceOnUse" x1="176.5237" y1="311.1573" x2="210.1935" y2="271.0312">
			<stop  offset="0" style="stop-color:#544930"/>
			<stop  offset="0.1638" style="stop-color:#FCCE85"/>
			<stop  offset="0.2297" style="stop-color:#FCCF88;stop-opacity:0.9944"/>
			<stop  offset="0.2743" style="stop-color:#FCD391;stop-opacity:0.9906"/>
			<stop  offset="0.3126" style="stop-color:#FDDAA0;stop-opacity:0.9874"/>
			<stop  offset="0.3474" style="stop-color:#FDE3B5;stop-opacity:0.9845"/>
			<stop  offset="0.3794" style="stop-color:#FEEFD1;stop-opacity:0.9817"/>
			<stop  offset="0.4" style="stop-color:#FFF8E7;stop-opacity:0.98"/>
			<stop  offset="0.4157" style="stop-color:#F6EAD4;stop-opacity:0.9811"/>
			<stop  offset="0.4494" style="stop-color:#E6D1B1;stop-opacity:0.9835"/>
			<stop  offset="0.4853" style="stop-color:#D8BC95;stop-opacity:0.9861"/>
			<stop  offset="0.5236" style="stop-color:#CEAC7F;stop-opacity:0.9888"/>
			<stop  offset="0.5653" style="stop-color:#C7A16F;stop-opacity:0.9918"/>
			<stop  offset="0.6129" style="stop-color:#C29A66;stop-opacity:0.9952"/>
			<stop  offset="0.6799" style="stop-color:#C19863"/>
			<stop  offset="0.7371" style="stop-color:#B48F5D"/>
			<stop  offset="0.8432" style="stop-color:#91764D"/>
			<stop  offset="0.9856" style="stop-color:#5A4D33"/>
			<stop  offset="1" style="stop-color:#544930"/>
		</linearGradient>
		<path style="fill:url(#SVGID_00000112604549177247741660000007452418838340714126_);" d="M216.1,279.4c0.2,1,0.1,3.3-0.4,6.8
			c-0.2,1.2-0.9,2.7-2.1,4.4c-1.2,1.7-2.5,3-3.8,3.8c-1.1,0.8-2.8,1.3-4.8,1.7c-0.5,0.2-1.3,0.5-2.3,0.7c-1.9,0.2-4.4,0.3-7.3,0.3
			c-0.2,0-0.4,0.1-0.6,0.4c0.1,0.9,0.2,3.9,0.3,8.9c0,1,0.2,2.3,0.6,3.8c0,0.4,0.1,1.1,0.4,1.9c0.5,0.9,1.3,1.5,2.5,1.9
			c0.9,0.3,1.8,0.5,2.7,0.8c0,0.3,0,0.6,0,1c-0.7,0.3-1.4,0.4-2.2,0.4h-3.8c0,0-0.4-0.1-1-0.2c-0.6-0.1-1-0.2-1.3-0.2
			c-0.7,0-1.9,0.1-3.5,0.2c-1.6,0.1-2.4,0.2-2.3,0.2h-3.6c-0.4,0-0.8-0.1-1.3-0.4c0,0,0-0.2-0.1-0.4s-0.1-0.4-0.1-0.5
			c1.3-0.3,2-0.6,2.3-0.7c0.9-0.4,1.6-1.1,2.2-2.1c0.2-0.4,0.4-1.6,0.5-3.3c0-0.3,0.1-1.1,0.3-2.3c0.1-1.1,0.2-1.9,0.2-2.5v-4.5
			c0-1.1-0.1-2.2-0.1-3.4c0-1.3,0.3-2.4,0.9-3.3c-0.2-0.2-0.4-0.5-0.7-1c-0.2-1.3-0.3-2.7-0.3-4.1c0,0,0.1-0.4,0.3-1.2
			c0.2-0.7,0.2-1.2,0-1.6c-0.4-1.1-0.4-2.4-0.1-4c0.1-0.5-0.1-1.9-0.5-4.4c0-0.8-0.2-1.8-0.6-3.1c-0.5-0.6-1.2-1.1-2.1-1.2
			c-0.7-0.1-1.4-0.3-2.1-0.4c0-1.4,0-1.7-0.1-0.9c0-0.4,0.3-0.6,0.7-0.6c1,0,2.5-0.2,4.7-0.3c2-0.2,3-0.3,3.1-0.3h4.6
			c0.9,0,1.8-0.1,2.7-0.2c0.9-0.2,1.7-0.2,2.3-0.2c0.8,0,1.8,0.1,3.1,0.2c0.8,0.2,1.9,0.4,3.4,0.7c0.1,0.1,0.4,0.2,0.7,0.3
			c2.3,0.3,4.4,1.4,6.1,3.3C214.7,275.2,215.6,277.1,216.1,279.4z M208.3,283.5c0-0.8,0-1.3-0.1-1.6c-1.2-3.2-2.3-5.3-3.1-6.2
			c-1.1-1.2-2.4-2-3.9-2.3c-0.9-0.2-2.4-0.3-4.5-0.2c-0.2,0-0.6,0.1-1,0.4c-0.4,4.1-0.6,7.5-0.7,10.1c0.1,0.2,0.2,0.5,0.3,0.8
			c0,0.3-0.1,1.7-0.3,4.2c-0.1,1.6-0.1,3.2,0.1,4.8c0.1,0.1,0.2,0.2,0.3,0.3h3.6c0.4,0.1,0.8,0.2,1.3,0.2c1.4,0,2.8-0.5,4.1-1.4
			c1.3-0.9,2.1-1.7,2.4-2.2C207.8,288.4,208.3,286.1,208.3,283.5z"/>
		
			<linearGradient id="SVGID_00000165207188974519957910000011525098392118959499_" gradientUnits="userSpaceOnUse" x1="224.3541" y1="317.7895" x2="263.86" y2="270.7081">
			<stop  offset="0" style="stop-color:#544930"/>
			<stop  offset="0.1638" style="stop-color:#FCCE85"/>
			<stop  offset="0.2297" style="stop-color:#FCCF88;stop-opacity:0.9944"/>
			<stop  offset="0.2743" style="stop-color:#FCD391;stop-opacity:0.9906"/>
			<stop  offset="0.3126" style="stop-color:#FDDAA0;stop-opacity:0.9874"/>
			<stop  offset="0.3474" style="stop-color:#FDE3B5;stop-opacity:0.9845"/>
			<stop  offset="0.3794" style="stop-color:#FEEFD1;stop-opacity:0.9817"/>
			<stop  offset="0.4" style="stop-color:#FFF8E7;stop-opacity:0.98"/>
			<stop  offset="0.4157" style="stop-color:#F6EAD4;stop-opacity:0.9811"/>
			<stop  offset="0.4494" style="stop-color:#E6D1B1;stop-opacity:0.9835"/>
			<stop  offset="0.4853" style="stop-color:#D8BC95;stop-opacity:0.9861"/>
			<stop  offset="0.5236" style="stop-color:#CEAC7F;stop-opacity:0.9888"/>
			<stop  offset="0.5653" style="stop-color:#C7A16F;stop-opacity:0.9918"/>
			<stop  offset="0.6129" style="stop-color:#C29A66;stop-opacity:0.9952"/>
			<stop  offset="0.6799" style="stop-color:#C19863"/>
			<stop  offset="0.7371" style="stop-color:#B48F5D"/>
			<stop  offset="0.8432" style="stop-color:#91764D"/>
			<stop  offset="0.9856" style="stop-color:#5A4D33"/>
			<stop  offset="1" style="stop-color:#544930"/>
		</linearGradient>
		<path style="fill:url(#SVGID_00000165207188974519957910000011525098392118959499_);" d="M268.3,316l-5.7-0.1h-3.4l-5.7,0.1
			c-0.3-0.5-0.3-1-0.1-1.3c1.1-0.1,1.6-0.3,1.6-0.7c0-0.1,0-0.3-0.1-0.4c-0.4-0.3-0.9-0.8-1.5-1.5c0-0.2-0.3-0.5-0.8-1.1
			c-1.3-1.2-3-2.8-5.3-4.7c-0.5-0.5-1.2-1.2-2.1-2.1c-0.6-0.4-1.4-1-2.2-1.7c0.4-0.1,0.6-0.1,0.6-0.1l0.8,0.3c0,0,0.3,0.1,0.9,0.3
			c-0.2-0.5-0.8-0.9-1.8-1.1c-0.1,0-0.3-0.2-0.6-0.6c-0.2-0.3-0.5-0.5-0.8-0.5c0,0.2,0.1,0.3,0.4,0.4c0,0.2-0.1,0.4-0.3,0.7
			c-0.3-0.1-0.7-0.3-1.2-0.6c-0.1-0.2-0.3-0.4-0.5-0.7c-0.3-0.1-0.8-0.3-1.4-0.7c-0.2-0.3-0.6-0.9-1.2-1.7c-0.4-0.2-0.9-0.6-1.6-1.2
			c-0.4-0.4-1-0.8-1.8-1.4c-0.3,0.2-0.4,0.9-0.3,2.2c0.1,0.7,0.2,1.8,0.3,3.2c0,0.8-0.1,2.1-0.1,3.7c0.1,0.7,0.2,1.8,0.4,3.3
			c0.1,0.5,0.3,1.2,0.5,2.1c0,0.4,0,0.9,0.1,1.6c0.7,1.2,1.8,2,3.1,2.2c0.6,0.1,1.3,0.3,2.2,0.7c0,0.6,0,1-0.2,1.1
			c-0.5,0-1.2,0.1-2.3,0.3h-3.3c0,0-0.4-0.1-1-0.2c-0.6-0.1-1-0.2-1.2-0.2c-0.5,0-1.4,0-2.5,0.1c-1.2,0.1-1.8,0.2-1.7,0.2h-4.7
			c-0.4,0.1-0.9,0.1-1.4,0c-0.6-0.1-0.9-0.4-0.9-0.9c0-0.1,0-0.2,0-0.3c0.1-0.2,0.5-0.3,1.1-0.4c0.8-0.1,1.4-0.3,1.7-0.4
			c0.7-0.3,1.2-1,1.8-1.9c0.2-0.4,0.4-1.4,0.6-3c0.1-1.1,0.3-2.8,0.4-5c-0.1-1.1-0.1-2.9-0.1-5.1c0-0.3,0.3-0.9,0.9-1.7
			c0,0.1-0.1-0.1-0.4-0.4c-0.3-0.3-0.4-0.7-0.4-1.2V292c0-1.6,0-2.3,0.1-2.1c-0.3-1-0.2-2.4,0.2-4c0.1-0.5,0-1-0.4-1.5v-2.8
			c0-0.3,0-0.4-0.1-0.2c0.2-0.2,0.3-0.4,0.3-0.5v-5c0-0.6-0.1-1.3-0.4-2.1c-0.3-1.1-0.8-1.7-1.3-1.9c-0.7-0.3-1.9-0.6-3.6-0.8
			c0-0.1-0.1-0.3-0.1-0.4c0-0.7,0.5-1,1.6-0.9l5.8,0.3h2.9c0,0,0.3,0,0.8-0.1c0.5-0.1,0.9-0.1,1.3-0.1c2.9,0,4.7,0,5.4-0.1
			c0.2,0.2,0.3,0.5,0.3,0.7c0,0,0,0.1,0,0.3c0,0.2,0,0.3,0,0.4c-0.7,0.1-1.4,0.3-2.1,0.4c-0.9,0.3-1.7,0.9-2.2,1.8
			c0,0.1-0.2,0.8-0.3,2c-0.2,1-0.4,2.4-0.7,4.3c0,0.1,0,0.4,0.1,0.9c0.1,0.5,0.2,0.9,0.2,1.2c0,0-0.1,0.2-0.2,0.3
			c-0.1,0.2-0.2,0.3-0.2,0.4c0,0.4,0,0.8,0.1,1.3c-0.1,0.6-0.2,1.3-0.3,2.2c0,0,0.1,0.8,0.4,2.3c-0.1,0.7-0.1,1.8,0.1,3.2
			c0.1,0,0.4-0.3,1-0.7c0.4-0.4,0.9-1,1.6-1.8c2.4-2.5,4.1-4.2,5-5.2c0.2-0.1,0.6-0.4,1.1-0.8c1.9-1.8,3.4-3.4,4.5-4.7
			c0.3-0.3,0.8-0.9,1.5-1.8c0.4-0.6,0.8-1.3,1.3-2.3c0.3-0.7,0.3-1.3-0.2-1.9c-0.5-0.6-1.1-0.9-1.9-1c-0.6-0.1-1.3-0.2-1.9-0.3
			c-0.1-0.1-0.1-0.5-0.1-1.1c1.1-0.3,3.1-0.3,6.1,0.1c0.2-0.1,0.5-0.1,0.9-0.2c1,0.1,1.4,0.2,1.4,0.2c1.8-0.1,4.3-0.2,7.5-0.4
			c0,0.5-0.1,1.1-0.2,1.5c-1.6-0.2-3.1,0.1-4.5,0.9c-0.4,0.4-1.2,1.1-2.2,2c-0.2,0.1-0.4,0.3-0.8,0.5c-1.7,1.9-4.1,4.5-7.2,7.8
			c-0.2,0.1-0.4,0.2-0.7,0.4c-0.5,0.4-2,1.9-4.5,4.6c-0.2,0.4-0.6,0.9-1.2,1.7c-0.4,0.4-1.1,1.1-1.9,1.9c0.2,0.1,0.5,0.3,0.9,0.5
			c1.2,1.1,2.4,2.2,3.6,3.5c0,0.1,0.1,0.3,0.3,0.6c0.8,0.8,2.1,2,3.8,3.6c0.4,0.2,0.9,0.6,1.7,1.1c0.6,0.4,1.6,1.4,2.9,2.9
			c0.5,0.5,1,1,1.5,1.4c0.3,0.2,0.8,0.4,1.4,0.8c0.2,0.3,0.6,0.8,1,1.4c0.2,0.2,1.3,1.2,3.5,2.9c0.8,0.9,2.1,2.1,3.7,3.4
			c0.1,0.1,0.3,0.3,0.5,0.5c0.5,0.2,1.4,0.6,2.6,1.1c0.3,0,0.8,0,1.3,0.1C268.2,314.9,268.3,315.4,268.3,316z"/>
		
			<linearGradient id="SVGID_00000122680508200104202590000018439763028659734704_" gradientUnits="userSpaceOnUse" x1="289.8616" y1="340.4563" x2="343.0301" y2="277.0925">
			<stop  offset="0" style="stop-color:#544930"/>
			<stop  offset="0.1638" style="stop-color:#FCCE85"/>
			<stop  offset="0.2297" style="stop-color:#FCCF88;stop-opacity:0.9944"/>
			<stop  offset="0.2743" style="stop-color:#FCD391;stop-opacity:0.9906"/>
			<stop  offset="0.3126" style="stop-color:#FDDAA0;stop-opacity:0.9874"/>
			<stop  offset="0.3474" style="stop-color:#FDE3B5;stop-opacity:0.9845"/>
			<stop  offset="0.3794" style="stop-color:#FEEFD1;stop-opacity:0.9817"/>
			<stop  offset="0.4" style="stop-color:#FFF8E7;stop-opacity:0.98"/>
			<stop  offset="0.4157" style="stop-color:#F6EAD4;stop-opacity:0.9811"/>
			<stop  offset="0.4494" style="stop-color:#E6D1B1;stop-opacity:0.9835"/>
			<stop  offset="0.4853" style="stop-color:#D8BC95;stop-opacity:0.9861"/>
			<stop  offset="0.5236" style="stop-color:#CEAC7F;stop-opacity:0.9888"/>
			<stop  offset="0.5653" style="stop-color:#C7A16F;stop-opacity:0.9918"/>
			<stop  offset="0.6129" style="stop-color:#C29A66;stop-opacity:0.9952"/>
			<stop  offset="0.6799" style="stop-color:#C19863"/>
			<stop  offset="0.7371" style="stop-color:#B48F5D"/>
			<stop  offset="0.8432" style="stop-color:#91764D"/>
			<stop  offset="0.9856" style="stop-color:#5A4D33"/>
			<stop  offset="1" style="stop-color:#544930"/>
		</linearGradient>
		<path style="fill:url(#SVGID_00000122680508200104202590000018439763028659734704_);" d="M282.9,332.5c0.5-0.3,1.3-0.5,2.5-0.7
			c1.2-0.2,2.1-0.5,2.7-0.8c1-0.7,1.9-1.8,2.6-3.4c0.1-0.6,0.3-1.5,0.6-2.7c0.8-2.9,1.9-6.9,3.3-11.9c0.5-0.7,1.1-1.7,2-3
			c0-0.2,0-0.6,0.1-1c0.4-0.8,0.7-1.9,0.9-3.3c0.2-1.6,0.4-2.7,0.5-3.1c0.8-2.3,1.6-5.2,2.5-8.7c0.6-2.4,1.3-4.8,2.3-7.2
			c0.4-0.7,0.9-1.9,1.5-3.5c0.1-0.8,0.3-1.8,0.6-3.2c1.3-4,3.2-10.1,5.5-18.3c0.1-0.8,0.2-2,0.4-3.4c0.2-1,0.6-1.9,1.4-2.7
			c0.3-0.3,1-0.5,2-0.6c1.6-0.1,2.5,0.1,2.8,0.5c0,0.5,0,1.3,0.1,2.2c0.2,0.4,0.6,1,1.3,1.9c0.6,0.7,0.9,1.3,0.9,1.9
			c0-0.1,0,1.3-0.1,4.2c-0.1,2,0,3.3,0.4,3.9c0.3,0.2,0.7,0.7,1.1,1.2c0.3,1,0.8,3.2,1.3,6.7c0.1,0.2,0.3,0.6,0.6,1
			c0.3,0.9,0.4,1.8,0.4,2.8c-0.3,0.2-1.6,0.7-3.8,1.5c-1.5,0.5-2.5,1.7-3.2,3.6c0.7,0.5,1.5,0.8,2.4,0.8c0.6,0,1.5-0.2,2.6-0.5
			c1.1-0.3,2-0.5,2.5-0.5c0.8,0,1.4,0.2,1.9,0.7c-0.1,0.3-0.1,0.6-0.1,0.9c0,0.8,0.4,2,1.1,3.6c0.9,1.9,1.5,3.1,1.6,3.7
			c-0.1,0.7-0.2,1.7-0.2,3c0.3,0.2,0.7,0.6,1.1,1.2c0.1,0.8,0.2,1.9,0.5,3.2c0.6,1.3,1.5,3.5,2.7,6.7c0.1,1,0.5,2.6,1,4.7
			c0.2,0.6,0.6,1.5,1.1,2.8c0.1,0.1,0.6,2,1.6,5.7c-0.1,0.4-0.1,1.1-0.1,2c0.1,0.5,0.6,1.3,1.5,2.6c0.7,1,1,2,0.9,2.8
			c1.6,0.8,3.8,2,6.4,3.7c-0.2,0.6-1.6,1.2-4,1.8c-0.2-0.2-0.4-0.4-0.7-0.7c-0.2-1.2-0.7-1.8-1.7-1.8c0.1,0-0.6,0.2-2.3,0.5
			c-1.1-0.2-2.6-0.1-4.7,0.1c-0.9,0.4-1.7,0.7-2.5,0.8c-0.7,0.1-1.4,0.2-2.1,0.3c-0.2,0-1.2-0.1-3-0.6c-1.4-0.4-3.1,0-5.2,1.1
			c-0.2-0.2-0.5-0.5-0.7-1c0-0.2-0.1-0.5-0.1-0.7c0-0.8,0.5-1.3,1.6-1.4c1.7-0.2,2.7-0.3,3-0.4c1.1-0.5,1.6-1.6,1.6-3.3
			c0-1-0.5-3.5-1.4-7.6c0-1.1,0-2.6-0.1-4.7c-0.1-0.3-0.4-0.8-1-1.5c-0.6-0.7-1-1.1-1-1.2c-0.4-0.9-0.7-2-0.9-3.4
			c-0.2-2-0.4-3.1-0.4-3.3c-0.5-1.7-1.1-4.3-2-7.7c-0.1-1-0.2-2.5-0.4-4.5c-0.4-0.4-0.9-1.1-1.5-2c-0.2-0.5-0.4-1.4-0.5-2.7
			c-0.2-1.6-0.3-2.5-0.3-2.8c-0.3-0.8-0.6-1.9-1-3.5c0-0.8-0.1-2.1-0.3-3.7c-0.2-1-0.8-1.3-1.8-0.8c-0.6,0.2-1,0.9-1.4,2
			c-0.2,0.9-0.4,1.7-0.6,2.6c-0.4,0.9-1,2.2-1.8,4c-0.1,0.2-0.4,1.5-1,4c0.1,0.5,0.1,1.3,0,2.2c-0.3,0.8-0.7,2-1.1,3.7
			c-0.1,0.9-0.3,2.2-0.7,3.7c-0.5,0.4-1.1,1.1-1.8,2.2c0.1,0.7,0.1,1.7,0.1,3c-0.1,0.9-0.5,1.9-1,3c-0.4,0.8-0.8,1.7-1.2,2.5
			c0,0-0.2,1.3-0.6,3.7c-0.4,0.6-0.8,1.4-1.3,2.5c0.1,0.5,0.2,1.3,0.3,2.2c-0.5,1.2-1.2,3.4-2.2,6.5c-0.1,0.6-0.1,1,0,1.4
			c0.4,1.2,1.1,2.6,2.2,4.3c0.4,0.3,1,0.6,1.8,0.7c1,0.2,1.6,0.3,1.9,0.4c0,0.9-0.3,1.3-0.8,1.3h-15c-0.1,0-0.5-0.1-1.1-0.2
			c-0.5-0.1-0.9-0.2-1.2-0.1c-0.3,0.1-0.8,0.3-1.4,0.6C282.9,334.7,282.7,333.8,282.9,332.5z"/>
		
			<linearGradient id="SVGID_00000081632918138443724280000013327467492987254163_" gradientUnits="userSpaceOnUse" x1="339.4956" y1="314.8247" x2="376.1707" y2="271.117">
			<stop  offset="0" style="stop-color:#544930"/>
			<stop  offset="0.1638" style="stop-color:#FCCE85"/>
			<stop  offset="0.2297" style="stop-color:#FCCF88;stop-opacity:0.9944"/>
			<stop  offset="0.2743" style="stop-color:#FCD391;stop-opacity:0.9906"/>
			<stop  offset="0.3126" style="stop-color:#FDDAA0;stop-opacity:0.9874"/>
			<stop  offset="0.3474" style="stop-color:#FDE3B5;stop-opacity:0.9845"/>
			<stop  offset="0.3794" style="stop-color:#FEEFD1;stop-opacity:0.9817"/>
			<stop  offset="0.4" style="stop-color:#FFF8E7;stop-opacity:0.98"/>
			<stop  offset="0.4157" style="stop-color:#F6EAD4;stop-opacity:0.9811"/>
			<stop  offset="0.4494" style="stop-color:#E6D1B1;stop-opacity:0.9835"/>
			<stop  offset="0.4853" style="stop-color:#D8BC95;stop-opacity:0.9861"/>
			<stop  offset="0.5236" style="stop-color:#CEAC7F;stop-opacity:0.9888"/>
			<stop  offset="0.5653" style="stop-color:#C7A16F;stop-opacity:0.9918"/>
			<stop  offset="0.6129" style="stop-color:#C29A66;stop-opacity:0.9952"/>
			<stop  offset="0.6799" style="stop-color:#C19863"/>
			<stop  offset="0.7371" style="stop-color:#B48F5D"/>
			<stop  offset="0.8432" style="stop-color:#91764D"/>
			<stop  offset="0.9856" style="stop-color:#5A4D33"/>
			<stop  offset="1" style="stop-color:#544930"/>
		</linearGradient>
		<path style="fill:url(#SVGID_00000081632918138443724280000013327467492987254163_);" d="M377.3,304.1c-0.1,1.3-0.2,3.1-0.5,5.4
			c-0.3,0.6-0.7,1.5-1.1,2.7c-0.1,0.5-0.3,1.2-0.6,2.1c-0.1,0.3-0.4,0.7-1,1.4c-0.6,0.8-1.1,1.2-1.5,1.2h-9.4c-0.2,0-1.3,0-3.3-0.1
			c-2-0.1-3.1-0.1-3.3-0.1h-5.6c-0.1,0-0.9-0.1-2.2-0.2c-1.4-0.1-2.1-0.2-2.3-0.2H341l-0.5-0.5c0.3-0.3,1.3-1.1,3.2-2.2
			c1.3-0.8,1.9-1.8,1.9-2.9v-11.6c0-1.9,0.3-4.4,0.9-7.6c-0.3-1-0.4-2.2-0.2-3.7c-0.4-0.4-0.7-0.9-0.7-1.5c0,0,0.2-1.1,0.7-3
			c0-0.2-0.1-0.5-0.4-1c-0.3-0.6-0.5-0.9-0.6-1c-0.2-0.5-0.2-1.3-0.2-2.4c0-1.5,0-2.3,0-2.5c-0.1-0.8-0.2-1.5-0.5-2
			c-0.4-0.7-1-1.3-1.8-1.7c-0.7-0.3-1.5-0.6-2.2-1c0.3-0.8,0.7-1.2,1.1-1.3c0.8,0.1,1.8,0.1,3.3,0.1c1.6-0.4,2.3-0.6,2.3-0.6h6.5
			c0.1,0,0.8,0.1,2.2,0.3c1.4,0.2,2.4,0.3,3.1,0.3c0.3,0,2.7-0.2,7.3-0.5c1.1-0.1,3.8,0,8.3,0.2c0.4,0.3,0.6,0.6,0.6,1
			c0,0.2-0.1,0.5-0.2,1c-0.2,0.4-0.2,0.7-0.2,0.9c0,0.8-0.3,3.5-0.8,8c-0.1,0.1-0.4,0.4-1.1,0.7c-0.1-0.2-0.6-1.6-1.4-3.9
			c-0.5-1.5-1.4-2.4-2.7-2.5c-0.5-0.1-1.1-0.2-1.7-0.4c-0.8-0.2-1.3-0.2-1.8-0.1c-1.1,0.3-3.4,0.4-7,0.1c-2-0.1-3.5-0.1-4.5,0.1
			c-0.3,0.1-0.5,0.4-0.6,0.8c0.9,2.9,0.9,5.4,0.1,7.6c0-0.1,0.1,0.5,0.1,1.8c0,0.3-0.1,1.1-0.2,2.1c-0.1,0.9-0.1,1.6-0.1,2.1
			c0,0.2,0.3,0.6,0.7,1H368c0.4-0.1,0.9-0.3,1.3-0.4c0.7-0.2,1.2-0.6,1.4-1.1c0.2-0.6,0.7-1.5,1.4-2.6c0.8,0,1.3,0.3,1.5,0.8
			c-0.1,1.4-0.2,3.2-0.3,5.4c0,1.4-0.2,3.6-0.5,6.3c-0.1,0.4-0.6,0.6-1.5,0.4c-0.3-0.6-0.9-1.4-1.7-2.3c-1.5-1.1-2.8-1.7-4.1-1.7
			h-5.1c-0.3,0-0.9-0.1-1.9-0.2c-0.9-0.1-1.6-0.2-2.1-0.2c-1.3,0-2.1,0.4-2.5,1.1c-0.4,0.9-0.6,1.5-0.6,2c0,0.4,0.1,1.3,0.3,2.5
			c0.2,1.2,0.2,2.2,0.2,2.8c0,0.3-0.1,1-0.3,1.9c-0.2,0.9-0.3,1.7-0.3,2.2c0,0.4,0,0.8,0.1,1.1c0.2,0.6,0.8,1.3,2,2.1
			c1.2,0.8,2.2,1.3,3,1.4c0.1,0,0.2,0.1,0.4,0.1c0.2,0.1,0.5,0.1,0.7,0.1h6.1c1.4,0,2.5-0.2,3.4-0.7c1.3-0.6,2.6-1.6,3.8-2.9
			c1.3-1.5,2.1-3,2.2-4.3C375.6,303.9,376.4,303.8,377.3,304.1z"/>
		
			<linearGradient id="SVGID_00000172417729294783118730000013968141237224962709_" gradientUnits="userSpaceOnUse" x1="373.8149" y1="311.4028" x2="410.4128" y2="267.7871">
			<stop  offset="0" style="stop-color:#544930"/>
			<stop  offset="0.1638" style="stop-color:#FCCE85"/>
			<stop  offset="0.2297" style="stop-color:#FCCF88;stop-opacity:0.9944"/>
			<stop  offset="0.2743" style="stop-color:#FCD391;stop-opacity:0.9906"/>
			<stop  offset="0.3126" style="stop-color:#FDDAA0;stop-opacity:0.9874"/>
			<stop  offset="0.3474" style="stop-color:#FDE3B5;stop-opacity:0.9845"/>
			<stop  offset="0.3794" style="stop-color:#FEEFD1;stop-opacity:0.9817"/>
			<stop  offset="0.4" style="stop-color:#FFF8E7;stop-opacity:0.98"/>
			<stop  offset="0.4157" style="stop-color:#F6EAD4;stop-opacity:0.9811"/>
			<stop  offset="0.4494" style="stop-color:#E6D1B1;stop-opacity:0.9835"/>
			<stop  offset="0.4853" style="stop-color:#D8BC95;stop-opacity:0.9861"/>
			<stop  offset="0.5236" style="stop-color:#CEAC7F;stop-opacity:0.9888"/>
			<stop  offset="0.5653" style="stop-color:#C7A16F;stop-opacity:0.9918"/>
			<stop  offset="0.6129" style="stop-color:#C29A66;stop-opacity:0.9952"/>
			<stop  offset="0.6799" style="stop-color:#C19863"/>
			<stop  offset="0.7371" style="stop-color:#B48F5D"/>
			<stop  offset="0.8432" style="stop-color:#91764D"/>
			<stop  offset="0.9856" style="stop-color:#5A4D33"/>
			<stop  offset="1" style="stop-color:#544930"/>
		</linearGradient>
		<path style="fill:url(#SVGID_00000172417729294783118730000013968141237224962709_);" d="M413.3,270.2c0.2,1.2,0.1,4.4-0.2,9.7
			c0,0.4-0.3,0.9-1,1.5c-0.1,0-0.5,0-1.2,0c-0.1-1.7-0.3-3-0.6-3.7c-0.5-1.4-1.3-2.3-2.4-2.7c-1.1-0.3-3.6-0.5-7.4-0.5h-6.4
			c-1.2,0-1.8,1.2-1.8,3.5c0-0.3,0.1,1,0.4,3.9c0,0.6-0.1,4.2-0.5,10.9c-0.4,6.7-0.5,10.3-0.5,10.8c0.2,0.3,0.3,0.8,0.5,1.4
			c0,0.4,0,1.1-0.1,2c-0.1,0.9-0.1,1.6-0.1,2c0,1.9,0.7,3.4,2,4.5c0,0,1.8,0.7,5.4,2.1c-0.5,0.6-1.1,0.9-1.8,0.9
			c1.5,0,0.8-0.1-2.1-0.1c-2.3,0-5.1-0.2-8.4-0.4c-1.8-0.1-2.9-0.1-3.5,0c-0.3,0.2-0.8,0.4-1.3,0.7c0,0-0.9-0.2-2.8-0.6
			c0.1-0.4,0.7-1,1.7-1.7c1-0.7,1.6-1.2,1.8-1.6c0.9-1.7,1.4-3.3,1.4-4.8v-8.8c0,0,0-0.8-0.1-2.6c-0.1-1.7-0.1-3-0.1-3.9
			c0,0.1,0-0.3,0.1-1.3c0-0.7,0-1.3,0-1.8c-0.1-0.7-0.3-1.3-0.6-1.8c0.9-1.2,1.3-2.7,1.3-4.3c0-1.7-0.4-3.6-1.3-5.7
			c0-0.4,0-1-0.1-1.8c0-0.4-0.1-0.8-0.2-1c-0.5-1-1.2-2-2.2-2.9c-0.3-0.3-0.9-0.5-1.9-0.5c-0.2-0.3-0.3-0.8-0.2-1.5
			c-0.1,0,1.6,0,5-0.1c5.4-0.1,13.6-0.2,24.7-0.3C410,269.8,411.5,270,413.3,270.2z"/>
		
			<linearGradient id="SVGID_00000023246338422425913200000017379000730256016266_" gradientUnits="userSpaceOnUse" x1="416.4684" y1="314.8247" x2="453.1435" y2="271.117">
			<stop  offset="0" style="stop-color:#544930"/>
			<stop  offset="0.1638" style="stop-color:#FCCE85"/>
			<stop  offset="0.2297" style="stop-color:#FCCF88;stop-opacity:0.9944"/>
			<stop  offset="0.2743" style="stop-color:#FCD391;stop-opacity:0.9906"/>
			<stop  offset="0.3126" style="stop-color:#FDDAA0;stop-opacity:0.9874"/>
			<stop  offset="0.3474" style="stop-color:#FDE3B5;stop-opacity:0.9845"/>
			<stop  offset="0.3794" style="stop-color:#FEEFD1;stop-opacity:0.9817"/>
			<stop  offset="0.4" style="stop-color:#FFF8E7;stop-opacity:0.98"/>
			<stop  offset="0.4157" style="stop-color:#F6EAD4;stop-opacity:0.9811"/>
			<stop  offset="0.4494" style="stop-color:#E6D1B1;stop-opacity:0.9835"/>
			<stop  offset="0.4853" style="stop-color:#D8BC95;stop-opacity:0.9861"/>
			<stop  offset="0.5236" style="stop-color:#CEAC7F;stop-opacity:0.9888"/>
			<stop  offset="0.5653" style="stop-color:#C7A16F;stop-opacity:0.9918"/>
			<stop  offset="0.6129" style="stop-color:#C29A66;stop-opacity:0.9952"/>
			<stop  offset="0.6799" style="stop-color:#C19863"/>
			<stop  offset="0.7371" style="stop-color:#B48F5D"/>
			<stop  offset="0.8432" style="stop-color:#91764D"/>
			<stop  offset="0.9856" style="stop-color:#5A4D33"/>
			<stop  offset="1" style="stop-color:#544930"/>
		</linearGradient>
		<path style="fill:url(#SVGID_00000023246338422425913200000017379000730256016266_);" d="M454.3,304.1c-0.1,1.3-0.2,3.1-0.5,5.4
			c-0.3,0.6-0.7,1.5-1.1,2.7c-0.1,0.5-0.3,1.2-0.6,2.1c-0.1,0.3-0.4,0.7-1,1.4c-0.6,0.8-1.1,1.2-1.5,1.2h-9.4c-0.2,0-1.3,0-3.3-0.1
			c-2-0.1-3.1-0.1-3.3-0.1h-5.6c-0.1,0-0.9-0.1-2.2-0.2c-1.4-0.1-2.1-0.2-2.3-0.2H418l-0.5-0.5c0.3-0.3,1.3-1.1,3.2-2.2
			c1.3-0.8,1.9-1.8,1.9-2.9v-11.6c0-1.9,0.3-4.4,0.9-7.6c-0.3-1-0.4-2.2-0.2-3.7c-0.4-0.4-0.7-0.9-0.7-1.5c0,0,0.2-1.1,0.7-3
			c0-0.2-0.1-0.5-0.4-1c-0.3-0.6-0.5-0.9-0.6-1c-0.2-0.5-0.2-1.3-0.2-2.4c0-1.5,0-2.3,0-2.5c-0.1-0.8-0.2-1.5-0.5-2
			c-0.4-0.7-1-1.3-1.8-1.7c-0.7-0.3-1.5-0.6-2.2-1c0.3-0.8,0.7-1.2,1.1-1.3c0.8,0.1,1.8,0.1,3.3,0.1c1.6-0.4,2.3-0.6,2.3-0.6h6.5
			c0.1,0,0.8,0.1,2.2,0.3c1.4,0.2,2.4,0.3,3.1,0.3c0.3,0,2.7-0.2,7.3-0.5c1.1-0.1,3.8,0,8.3,0.2c0.4,0.3,0.6,0.6,0.6,1
			c0,0.2-0.1,0.5-0.2,1c-0.2,0.4-0.2,0.7-0.2,0.9c0,0.8-0.3,3.5-0.8,8c-0.1,0.1-0.4,0.4-1.1,0.7c-0.1-0.2-0.6-1.6-1.4-3.9
			c-0.5-1.5-1.4-2.4-2.7-2.5c-0.5-0.1-1.1-0.2-1.7-0.4c-0.8-0.2-1.3-0.2-1.8-0.1c-1.1,0.3-3.4,0.4-7,0.1c-2-0.1-3.5-0.1-4.5,0.1
			c-0.3,0.1-0.5,0.4-0.6,0.8c0.9,2.9,0.9,5.4,0.1,7.6c0-0.1,0.1,0.5,0.1,1.8c0,0.3-0.1,1.1-0.2,2.1c-0.1,0.9-0.1,1.6-0.1,2.1
			c0,0.2,0.3,0.6,0.7,1H445c0.4-0.1,0.9-0.3,1.3-0.4c0.7-0.2,1.2-0.6,1.4-1.1c0.2-0.6,0.7-1.5,1.4-2.6c0.8,0,1.3,0.3,1.5,0.8
			c-0.1,1.4-0.2,3.2-0.3,5.4c0,1.4-0.2,3.6-0.5,6.3c-0.1,0.4-0.6,0.6-1.5,0.4c-0.3-0.6-0.9-1.4-1.7-2.3c-1.5-1.1-2.8-1.7-4.1-1.7
			h-5.1c-0.3,0-0.9-0.1-1.9-0.2c-0.9-0.1-1.6-0.2-2.1-0.2c-1.3,0-2.1,0.4-2.5,1.1c-0.4,0.9-0.6,1.5-0.6,2c0,0.4,0.1,1.3,0.3,2.5
			c0.2,1.2,0.2,2.2,0.2,2.8c0,0.3-0.1,1-0.3,1.9c-0.2,0.9-0.3,1.7-0.3,2.2c0,0.4,0,0.8,0.1,1.1c0.2,0.6,0.8,1.3,2,2.1
			c1.2,0.8,2.2,1.3,3,1.4c0.1,0,0.2,0.1,0.4,0.1c0.2,0.1,0.5,0.1,0.7,0.1h6.1c1.4,0,2.5-0.2,3.4-0.7c1.3-0.6,2.6-1.6,3.8-2.9
			c1.3-1.5,2.1-3,2.2-4.3C452.5,303.9,453.3,303.8,454.3,304.1z"/>
		
			<linearGradient id="SVGID_00000144296599607224080820000011665549297502641850_" gradientUnits="userSpaceOnUse" x1="459.6921" y1="318.7519" x2="502.5183" y2="267.7136">
			<stop  offset="0" style="stop-color:#544930"/>
			<stop  offset="0.1638" style="stop-color:#FCCE85"/>
			<stop  offset="0.2297" style="stop-color:#FCCF88;stop-opacity:0.9944"/>
			<stop  offset="0.2743" style="stop-color:#FCD391;stop-opacity:0.9906"/>
			<stop  offset="0.3126" style="stop-color:#FDDAA0;stop-opacity:0.9874"/>
			<stop  offset="0.3474" style="stop-color:#FDE3B5;stop-opacity:0.9845"/>
			<stop  offset="0.3794" style="stop-color:#FEEFD1;stop-opacity:0.9817"/>
			<stop  offset="0.4" style="stop-color:#FFF8E7;stop-opacity:0.98"/>
			<stop  offset="0.4157" style="stop-color:#F6EAD4;stop-opacity:0.9811"/>
			<stop  offset="0.4494" style="stop-color:#E6D1B1;stop-opacity:0.9835"/>
			<stop  offset="0.4853" style="stop-color:#D8BC95;stop-opacity:0.9861"/>
			<stop  offset="0.5236" style="stop-color:#CEAC7F;stop-opacity:0.9888"/>
			<stop  offset="0.5653" style="stop-color:#C7A16F;stop-opacity:0.9918"/>
			<stop  offset="0.6129" style="stop-color:#C29A66;stop-opacity:0.9952"/>
			<stop  offset="0.6799" style="stop-color:#C19863"/>
			<stop  offset="0.7371" style="stop-color:#B48F5D"/>
			<stop  offset="0.8432" style="stop-color:#91764D"/>
			<stop  offset="0.9856" style="stop-color:#5A4D33"/>
			<stop  offset="1" style="stop-color:#544930"/>
		</linearGradient>
		<path style="fill:url(#SVGID_00000144296599607224080820000011665549297502641850_);" d="M505.8,270.4c0,0.3-0.1,0.5-0.4,0.7
			c-1,0.3-1.9,0.6-2.6,1.1c-0.4,0.3-0.9,0.8-1.5,1.7c-0.6,0.9-0.9,1.5-0.9,1.9c0,2.2,0,3.1,0.1,2.6c-0.2,0.6-0.4,1.4-0.7,2.6
			c0,0.3,0.2,1.6,0.5,3.8c0.1,0.8,0.1,1.7,0.1,3c0,1.4-0.1,3.2-0.2,5.3c-0.2,2.1-0.2,3-0.2,2.9v5.4c0,5.5,0.6,9.4,1.9,11.5
			c0.2,0.4,0.8,0.8,1.6,1.3c0.8,0.4,1.5,0.7,2.1,0.7c-0.1,0.2-0.4,0.6-0.8,1.1h-17.1c0-0.1,0-0.4-0.1-0.7s-0.1-0.5-0.1-0.6
			c0.5-0.2,1.3-0.6,2.3-1.1c0.8-0.4,1.5-1.5,2.1-3.4c0.6-1.6,0.8-2.9,0.8-3.9V301c0-0.4-0.1-1.4-0.3-3c-0.1-1.2-0.1-2.3,0-3
			c0.1-0.6-0.1-1.5-0.6-2.9c-1.2,0.9-3,1.5-5.4,2c-1.3,0.2-2.4,0.3-3.3,0.1c-1.3-0.2-1.9-0.3-2-0.3h-9.2c-0.6,0.3-1.3,0.9-2.2,1.8
			c-0.4,0.6-0.5,1.4-0.4,2.5c0.2,0.4,0.4,1,0.7,1.8c-0.1-0.3-0.2,0.3-0.3,2c0,0.1,0.1,2,0.3,5.8c0.2,4,1.6,6.3,4.1,6.8
			c0.1,0,0.6,0.2,1.6,0.6c-0.8,0.9-1.8,1.4-2.8,1.4c-0.3,0-0.6,0-1.1-0.1c-0.5-0.1-0.8-0.1-0.9-0.1l-14.5-0.2c0-0.4,0.6-0.9,1.7-1.3
			c1.3-0.5,2.3-1.3,3-2.4c0.5-0.8,0.9-2.3,1-4.5c0.2-2.3,0.2-4.3,0.1-5.9c-0.1-0.2-0.2-0.5-0.4-0.8c0-1.9,0.1-4.7,0.3-8.4
			c0-0.1,0.2-0.5,0.4-1.2c0.2-0.6,0.3-1,0.3-1.4c-0.3-0.4-0.6-1.1-1-2.2c0.1,0.3,0.2-0.5,0.3-2.4c0-0.4,0-1-0.1-1.7
			c-0.1-0.8-0.2-1.2-0.2-1.3v-5.9c0-0.8-0.6-1.7-1.7-2.8c-1.1-1.1-2.2-1.8-3.3-2.2c0,0,0.3-0.5,0.8-1.2c0.9,0,2.2-0.1,4.1-0.3
			c1.8-0.1,2.7-0.2,2.8-0.2h7c0.3,0,0.6,0,1-0.1c0.3-0.1,0.6-0.1,0.7-0.1c0.5,0,1.3,0.5,2.6,1.4c-0.9,0.4-1.7,0.8-2.6,1.3
			c-1.1,0.6-1.8,1.2-2.3,1.9c-0.8,1.1-1.2,3.1-1.2,6.1v7.8c0,0.1,0,0.3,0.1,0.5c0.1,0.2,0.1,0.3,0.1,0.4c1.1,0.5,2.1,0.8,2.9,0.8
			h14.6c0.5,0.1,1.3,0.2,2.3,0.5c0,0,0.4,0.1,1,0.4c0.5,0.2,0.9,0.3,1.1,0.3c0.2,0,0.3,0,0.4-0.1c0.8-0.9,1.2-2.1,1.2-3.4
			c0-0.7-0.1-1.6-0.4-2.9c-0.3-1.2-0.4-2.1-0.4-2.6c0-0.4-0.1-1.2-0.2-2.3c-0.2-1.3-0.3-2.3-0.3-2.9c-0.1-2.4-1.9-4.5-5.4-6.3
			c0.5-0.5,0.8-0.7,1.1-0.7h5.5c-0.3,0,0.7,0,3-0.1c2.1-0.1,3.6-0.1,4.7,0C502.1,269.9,503.7,270.1,505.8,270.4z"/>
		
			<linearGradient id="SVGID_00000015349244146966194900000000111626914353228418_" gradientUnits="userSpaceOnUse" x1="514.6291" y1="325.8794" x2="560.6305" y2="271.0571">
			<stop  offset="0" style="stop-color:#544930"/>
			<stop  offset="0.1638" style="stop-color:#FCCE85"/>
			<stop  offset="0.2297" style="stop-color:#FCCF88;stop-opacity:0.9944"/>
			<stop  offset="0.2743" style="stop-color:#FCD391;stop-opacity:0.9906"/>
			<stop  offset="0.3126" style="stop-color:#FDDAA0;stop-opacity:0.9874"/>
			<stop  offset="0.3474" style="stop-color:#FDE3B5;stop-opacity:0.9845"/>
			<stop  offset="0.3794" style="stop-color:#FEEFD1;stop-opacity:0.9817"/>
			<stop  offset="0.4" style="stop-color:#FFF8E7;stop-opacity:0.98"/>
			<stop  offset="0.4157" style="stop-color:#F6EAD4;stop-opacity:0.9811"/>
			<stop  offset="0.4494" style="stop-color:#E6D1B1;stop-opacity:0.9835"/>
			<stop  offset="0.4853" style="stop-color:#D8BC95;stop-opacity:0.9861"/>
			<stop  offset="0.5236" style="stop-color:#CEAC7F;stop-opacity:0.9888"/>
			<stop  offset="0.5653" style="stop-color:#C7A16F;stop-opacity:0.9918"/>
			<stop  offset="0.6129" style="stop-color:#C29A66;stop-opacity:0.9952"/>
			<stop  offset="0.6799" style="stop-color:#C19863"/>
			<stop  offset="0.7371" style="stop-color:#B48F5D"/>
			<stop  offset="0.8432" style="stop-color:#91764D"/>
			<stop  offset="0.9856" style="stop-color:#5A4D33"/>
			<stop  offset="1" style="stop-color:#544930"/>
		</linearGradient>
		<path style="fill:url(#SVGID_00000015349244146966194900000000111626914353228418_);" d="M539.6,269.8v0.1
			c5.4,0.1,10.4,0.1,15,0.2c3.5,0.1,5.1,0.1,5,0.1c0,0.7,0,1.2-0.2,1.5c-1,0.1-1.6,0.3-1.9,0.5c-1,0.9-1.7,1.9-2.2,2.9
			c-0.1,0.3-0.2,0.6-0.2,1c0,0.7-0.1,1.3-0.1,1.8c-0.9,2.1-1.3,4-1.3,5.7c0,1.7,0.4,3.1,1.3,4.3c-0.3,0.5-0.5,1.1-0.6,1.8
			c-0.1,0.5-0.1,1.1,0,1.8c0,0.8,0,1.2,0.1,1.3c0,0.9,0,2.2-0.1,3.9c0,1.7-0.1,2.6-0.1,2.5v8.8c0,1.2,0.3,2.4,0.8,3.7
			c0.5,0,1.1,0,1.6,0c1.1,0,2.6,0.1,4.4,0.4c0.2,1.2,0.1,4.4-0.2,9.7c0,0.4-0.3,0.9-1,1.5c-0.1,0-0.5,0-1.2,0
			c-0.1-1.7-0.3-3-0.6-3.7c-0.5-1.4-1.3-2.3-2.4-2.7c-1.1-0.3-3.6-0.5-7.4-0.5h-25.3c-3.8,0-6.3,0.2-7.4,0.5
			c-1.1,0.3-1.9,1.2-2.4,2.7c-0.2,0.7-0.4,1.9-0.6,3.7c-0.7,0-1.1,0-1.2,0c-0.6-0.6-0.9-1.1-1-1.5c-0.4-5.3-0.4-8.6-0.2-9.7
			c1.8-0.2,3.3-0.4,4.4-0.4c0.3,0,0.6,0,0.9,0c1-0.4,2.2-0.9,3.6-1.4c0.5,0.1,1.3,0.2,2.3,0.2c0.4,0,0.8-0.3,1-0.8
			c0.3-0.5,0.7-1.2,1.2-2.3c0.4-1,0.8-4,1.2-9.1c0.3-0.4,0.9-0.7,1.6-0.8c1.1-0.3,1.7-0.4,1.9-0.5c-0.5-0.1-1.1-0.2-1.8-0.2
			c-0.1,0-0.3,0-0.6,0.1c-0.3,0.1-0.5,0.1-0.7,0.1c-0.2-0.5-0.3-1.8-0.3-3.8c0.1-1.4,0-2.9-0.1-4.4c0-0.2-0.2-2.2-0.5-6.2
			c0-0.7,0-1.7-0.1-3c-0.1-0.1-0.2-0.4-0.3-0.8c-0.1-0.7-0.3-1.7-0.6-3.1c-0.2-0.3-0.5-0.7-0.8-1.2c-0.4-0.8-0.6-1.3-0.7-1.5
			c-0.3-0.5-0.8-0.9-1.3-1.2c-0.6-0.2-1.4-0.5-2.6-0.8c0-0.2,0.1-0.7,0.3-1.3H539.6z M535.8,312c2.9,0,6.4-0.1,10.4-0.1
			c0.4-0.8,0.6-1.7,0.6-2.8c0-0.4,0-1.1-0.1-2c-0.1-0.9-0.1-1.6-0.1-2c0.2-0.6,0.3-1.1,0.5-1.4c0-0.6-0.1-4.2-0.5-10.8
			c-0.4-6.7-0.5-10.3-0.5-10.9c0.2-2.9,0.4-4.1,0.4-3.9c0-2.3-0.6-3.5-1.8-3.5h-4.5c-3.8,0-6.3,0.2-7.4,0.5
			c-1.1,0.3-1.9,1.2-2.4,2.7c-0.2,0.7-0.4,1.9-0.6,3.7h0l-0.3,7.2c0.1,0.5,0.1,1.6,0.2,3.4c0,0.7,0,1.6,0,2.9c0.1,1.5,0.1,2.5,0.1,3
			c0,0,0.1,0.2,0.2,0.3c0.1,0.2,0.2,0.3,0.2,0.4c0.1,0.5,0.2,1,0.3,1.5c0.1,0.6,0.1,1.1,0,1.4c-0.2,0.5-0.9,1.4-2.2,2.8
			c-0.7,2.9-2,5.4-4,7.5C528.8,311.9,532.6,311.9,535.8,312z"/>
	</g>
	<g>
		
			<linearGradient id="SVGID_00000111902298166963279030000009335072214146336678_" gradientUnits="userSpaceOnUse" x1="215.7207" y1="245.2899" x2="334.685" y2="103.5137">
			<stop  offset="0" style="stop-color:#544930"/>
			<stop  offset="0.1638" style="stop-color:#FCCE85"/>
			<stop  offset="0.2297" style="stop-color:#FCCF88;stop-opacity:0.9944"/>
			<stop  offset="0.2743" style="stop-color:#FCD391;stop-opacity:0.9906"/>
			<stop  offset="0.3126" style="stop-color:#FDDAA0;stop-opacity:0.9874"/>
			<stop  offset="0.3474" style="stop-color:#FDE3B5;stop-opacity:0.9845"/>
			<stop  offset="0.3794" style="stop-color:#FEEFD1;stop-opacity:0.9817"/>
			<stop  offset="0.4" style="stop-color:#FFF8E7;stop-opacity:0.98"/>
			<stop  offset="0.4157" style="stop-color:#F6EAD4;stop-opacity:0.9811"/>
			<stop  offset="0.4494" style="stop-color:#E6D1B1;stop-opacity:0.9835"/>
			<stop  offset="0.4853" style="stop-color:#D8BC95;stop-opacity:0.9861"/>
			<stop  offset="0.5236" style="stop-color:#CEAC7F;stop-opacity:0.9888"/>
			<stop  offset="0.5653" style="stop-color:#C7A16F;stop-opacity:0.9918"/>
			<stop  offset="0.6129" style="stop-color:#C29A66;stop-opacity:0.9952"/>
			<stop  offset="0.6799" style="stop-color:#C19863"/>
			<stop  offset="0.7371" style="stop-color:#B48F5D"/>
			<stop  offset="0.8432" style="stop-color:#91764D"/>
			<stop  offset="0.9856" style="stop-color:#5A4D33"/>
			<stop  offset="1" style="stop-color:#544930"/>
		</linearGradient>
		<path style="fill:url(#SVGID_00000111902298166963279030000009335072214146336678_);" d="M327.1,210.5c-0.7-6.2-0.6-8.9-2.7-12.4
			c-1.6-2.7-3.8-4.5-5.4-5.5c-1.1-0.7-2.9-1.8-5.4-2.8c-5-1.8-8.6-1.3-9.4-3.4c-0.2-0.6-0.4-1.6,0.6-3.3c-0.7-1.8-1.4-3.6-2.1-5.4
			c-8.5-27.9-17-55.9-25.4-83.8c0.4-1.9,0.8-3.3,1.1-4.4c0.2-0.7,0.6-1.9,2.1-6.5c0.5-1.5,0.9-2.7,1.2-3.5c1.7-5.3,3.4-10.7,5.1-16
			c-3,1.1-7.8,2.4-13.8,2.2c-7.4-0.3-12.9-2.8-15.9-4.4c2,4.5,4,9.8,5.7,15.8c1.8,6.3,2.9,12,3.7,17.1c-0.6,3.9-1.4,8.1-2.4,12.6
			c-0.9,3.8-1.9,7.5-2.9,10.9c0,0-7.6,27.2-18.8,54.7c-1,2.5-2,4.9-2,4.9c-0.3,0.6-0.5,1.3-0.6,1.4c-0.8,1.8-1.1,2.6-1.3,3.1
			c-1.1,2.4-1.6,3.6-2.5,4.2c-0.4,0.3-1.8,0.7-4.5,1.5c-0.7,0.2-1.3,0.4-1.3,0.4c-4.1,1.2-7.6,3.6-7.6,3.6c-2.1,1.4-4.9,3.3-6.7,6.9
			c-0.6,1.1-0.8,2-1,2.7c-1.6,5.6-1.6,11.1-2,15.5c-0.7,9.6-2.4,17.6-2.4,17.6c-0.5,2.2-1.4,6.1-0.1,6.8c0.6,0.3,1.3-0.3,3.7-1.2
			c0.7-0.3,2.8-1.1,4.5-1.5c3.7-0.7,7.3,0.8,8.8,1.4c3.4,1.4,4.4,1.9,5.1,1.3c1-0.8,0.3-3-1.2-8.6c-0.4-1.6-1.7-6.3-2.4-9.8
			c-1.2-5.8-1.9-8.8-1.2-12.2c0.3-1.6,0.9-4.3,3.1-6.6c2.5-2.6,5.7-3.3,7.4-3.6c10.1-1.9,27.4-0.8,37.2-0.8c11.4,0,22.8,1,34.2,1.2
			c1.1,0,3.7,0.1,5.7,1.8c4.3,3.7,2.5,12.2,1.3,17.9c-2.5,12-7.7,19.1-5.8,20.6c1.1,0.9,3.5-1.3,11-2.4c1.7-0.3,2.4-0.3,2.9-0.2
			c4.8,0.2,6.9,3.4,8.1,2.7c1.4-0.8-0.6-5.8-2.4-13.4C328,218.3,327.1,210.5,327.1,210.5z M215.8,232.2c1.4-2.4,2.9-4.9,4.3-7.3
			c1.8,2.4,3.5,4.9,5.3,7.3C222.2,232.2,219,232.2,215.8,232.2z M269,74.5c0.6-0.5,1.9,0.5,4.9,0.4c2.3-0.1,3.2-0.8,3.6-0.4
			c0.5,0.5,0.1,2.6-4.9,9.8C268.7,77.4,268.3,75.1,269,74.5z M244.9,193.4c-1.8,0-3.3-1.5-3.3-3.3c0-1.8,1.5-3.3,3.3-3.3
			c1.8,0,3.3,1.5,3.3,3.3C248.2,192,246.7,193.4,244.9,193.4z M288.9,184.2c-10.8,0-21.6,0-32.4,0c0.2-5.3,0.8-13.1,2.5-22.4
			c1-5.5,2.1-9.5,5-19.9c2.1-7.6,4.8-17.2,8-28.4c3.1,10.4,5.8,19.5,8,27.1c3.6,12.5,4.9,17,6.1,23.2
			C287.8,172.2,288.5,179.3,288.9,184.2z M297.3,194.1c-1.8,0-3.3-1.5-3.3-3.3c0-1.8,1.5-3.3,3.3-3.3s3.3,1.5,3.3,3.3
			C300.6,192.6,299.1,194.1,297.3,194.1z M317.2,233.4c1.8-2.3,3.7-4.6,5.5-6.9c1.4,2.3,2.8,4.6,4.1,6.9
			C323.6,233.4,320.4,233.4,317.2,233.4z"/>
		
			<linearGradient id="SVGID_00000088824388238713237580000011812426318435167376_" gradientUnits="userSpaceOnUse" x1="391.3605" y1="178.8226" x2="449.5529" y2="109.4717">
			<stop  offset="0" style="stop-color:#544930"/>
			<stop  offset="0.1638" style="stop-color:#FCCE85"/>
			<stop  offset="0.2297" style="stop-color:#FCCF88;stop-opacity:0.9944"/>
			<stop  offset="0.2743" style="stop-color:#FCD391;stop-opacity:0.9906"/>
			<stop  offset="0.3126" style="stop-color:#FDDAA0;stop-opacity:0.9874"/>
			<stop  offset="0.3474" style="stop-color:#FDE3B5;stop-opacity:0.9845"/>
			<stop  offset="0.3794" style="stop-color:#FEEFD1;stop-opacity:0.9817"/>
			<stop  offset="0.4" style="stop-color:#FFF8E7;stop-opacity:0.98"/>
			<stop  offset="0.4157" style="stop-color:#F6EAD4;stop-opacity:0.9811"/>
			<stop  offset="0.4494" style="stop-color:#E6D1B1;stop-opacity:0.9835"/>
			<stop  offset="0.4853" style="stop-color:#D8BC95;stop-opacity:0.9861"/>
			<stop  offset="0.5236" style="stop-color:#CEAC7F;stop-opacity:0.9888"/>
			<stop  offset="0.5653" style="stop-color:#C7A16F;stop-opacity:0.9918"/>
			<stop  offset="0.6129" style="stop-color:#C29A66;stop-opacity:0.9952"/>
			<stop  offset="0.6799" style="stop-color:#C19863"/>
			<stop  offset="0.7371" style="stop-color:#B48F5D"/>
			<stop  offset="0.8432" style="stop-color:#91764D"/>
			<stop  offset="0.9856" style="stop-color:#5A4D33"/>
			<stop  offset="1" style="stop-color:#544930"/>
		</linearGradient>
		<path style="fill:url(#SVGID_00000088824388238713237580000011812426318435167376_);" d="M441.5,127c-6.2,0.4-11,2.9-13.7,4.6
			c1.1,1.9,2.3,3.8,3.4,5.7c2-1.5,6.5-4.5,12.5-4.6c11.1-0.2,18.1,9.6,19.4,11.4c6,8.4,9.7,31.9-4.6,43.3c-6.1,4.8-15,7.2-23.4,4.9
			c-12.3-3.4-17.3-15.2-18.7-18.6c0,0-4.3-10.2-2.5-22.7c0.1-1,0.6-3.7,1.2-8.3c0.5-3.6,1-7.6,1.2-9.4c0.3-2.2,1.1-9.3,1.2-16.5
			c0.1-4.6,0.2-11-1.2-18.9c0,0-2.6-14.2-10.6-24.8c-1.9-2.5-3.8-3.3-4.7-3.5c-1.9-0.6-3.7-0.3-4.7,0c3.2,5.9,5.5,11.2,7.1,15.3
			c2,5.3,3.2,9.6,4,12.5c0.2,0.7,1.9,7,3.1,13.4c2.6,14.6,1.9,26.4,0.3,49.8c-0.2,2.3-0.4,5.4-1.3,9.3c-0.9,4-3,10.3-8,17.3
			c5.5,1.8,9.8,3.7,12.5,5c6.8,3.3,11.8,6.6,19.6,8.6c1.5,0.4,3.2,0.7,5.2,0.9c1,0.1,4.8,0.3,10.6-1.2c4.5-1.1,12.7-3.4,19.7-10.9
			c0.4-0.5,0.7-0.8,1-1.1c2.4-2.8,7.8-9.3,9.1-19.4c1.9-15.5-7.6-26.8-10.3-29.6C466.6,137.1,456.4,126,441.5,127z"/>
		
			<linearGradient id="SVGID_00000009592041858053659240000018261635773582249358_" gradientUnits="userSpaceOnUse" x1="382.8269" y1="185.7033" x2="451.193" y2="104.2277">
			<stop  offset="0" style="stop-color:#544930"/>
			<stop  offset="0.1638" style="stop-color:#FCCE85"/>
			<stop  offset="0.2297" style="stop-color:#FCCF88;stop-opacity:0.9944"/>
			<stop  offset="0.2743" style="stop-color:#FCD391;stop-opacity:0.9906"/>
			<stop  offset="0.3126" style="stop-color:#FDDAA0;stop-opacity:0.9874"/>
			<stop  offset="0.3474" style="stop-color:#FDE3B5;stop-opacity:0.9845"/>
			<stop  offset="0.3794" style="stop-color:#FEEFD1;stop-opacity:0.9817"/>
			<stop  offset="0.4" style="stop-color:#FFF8E7;stop-opacity:0.98"/>
			<stop  offset="0.4157" style="stop-color:#F6EAD4;stop-opacity:0.9811"/>
			<stop  offset="0.4494" style="stop-color:#E6D1B1;stop-opacity:0.9835"/>
			<stop  offset="0.4853" style="stop-color:#D8BC95;stop-opacity:0.9861"/>
			<stop  offset="0.5236" style="stop-color:#CEAC7F;stop-opacity:0.9888"/>
			<stop  offset="0.5653" style="stop-color:#C7A16F;stop-opacity:0.9918"/>
			<stop  offset="0.6129" style="stop-color:#C29A66;stop-opacity:0.9952"/>
			<stop  offset="0.6799" style="stop-color:#C19863"/>
			<stop  offset="0.7371" style="stop-color:#B48F5D"/>
			<stop  offset="0.8432" style="stop-color:#91764D"/>
			<stop  offset="0.9856" style="stop-color:#5A4D33"/>
			<stop  offset="1" style="stop-color:#544930"/>
		</linearGradient>
		<path style="fill:url(#SVGID_00000009592041858053659240000018261635773582249358_);" d="M429,123.6c-4.1,1.6-7.1,3.9-9.1,5.7
			c2.6-10.1,5.3-27.8-2.3-45.6c-2.8-6.6-7.8-18.2-17.8-20c-4.3-0.8-8.1,0.5-10.7,1.8c2.7,4.8,6,11.3,9.1,19.4
			c1.6,4.1,4.7,12.2,6.8,22.8c2.5,12.3,2.2,21.4,1.7,39.7c-0.6,19.6-2.3,24.4-4,27.9c-3.8,7.9-9.4,13-13.3,16
			c2.5,0,6.3,0.3,10.6,1.3c4.9,1.2,8.1,2.8,10.6,4c0,0,8.5,3.9,19.4,6.7c2.6,0.7,19.3,5.1,34.2-4.6c1.5-1,16.9-11.3,18.2-30.8
			c1.2-16.8-9-28.1-11.4-30.8C461.3,126.4,443.7,118,429,123.6z M424.4,139.6c1.9,3.4,2.1,3.4,2.2,4.1c0.5,2.3-0.4,3.3-0.9,7.4
			c0,0-0.2,1.6-0.2,4.5c0,1.7,0.3,13.2,8.5,18.1c4.7,2.8,9.6,2,10.2,1.9c3.4-0.6,5.7-2.2,6.6-2.8c0.9-0.6,1.9-1.4,2.9-2.7
			c2.1-2.7,2.4-5.5,2.5-6.6c0.1-1.3,0.3-5.1-2.2-8.8c-0.6-0.9-2.4-3.4-5.8-4.9c-4.7-2.1-10.9-1.5-14.8,2.3c-2.1,2-2.9,4.2-3.1,4.8
			c-1.7,5.2,0.6,11.1,4.7,14.2c2.4,1.8,4.9,2.2,5.9,2.4c1,0.1,4,0.5,7.1-1.2c0.5-0.3,5.1-2.8,5.9-8.3c0.6-4.3-1.6-7.5-2.3-8.5
			c-0.4-0.5-3.7-4.7-9.1-4.6c-0.8,0-3.8,0.2-6.3,2.4c-2.4,2.2-2.9,4.9-3.1,6c-0.2,1-0.5,2.9,0.3,5.2c0.2,0.5,1,2.8,3.4,4.6
			c0.8,0.6,2.7,1.8,5.3,1.9c0.7,0,3.6,0.1,6.1-1.9c0.6-0.5,0.9-0.9,1.1-1.1c1.8-2.2,2.2-4.7,2.3-5.7c0.1-0.9,0.2-1.9,0-3.1
			c-0.1-0.4-1-4.4-4.7-5.9c-2.5-1-4.8-0.3-5.5-0.1c-0.7,0.2-3.1,1-4.6,3.4c-0.3,0.5-1.5,2.6-1.1,5.3c0.1,0.6,0.4,2.4,1.9,4
			c1.4,1.5,3.1,1.9,3.7,2.1c0.8,0.2,2,0.5,3.4,0c1.1-0.4,1.8-1.1,2.1-1.4c0.2-0.2,0.7-0.7,1.1-1.5c0.7-1.1,1.7-2.8,1.2-4.7
			c-0.6-2.4-3-3.3-3.5-3.5c-0.5-0.2-2.6-1-4.7,0c-1.5,0.7-2.2,2-2.4,2.4c-0.1,0.2-1.1,2.4,0,4.7c0.2,0.4,0.9,1.7,2.4,2.4
			c0.3,0.1,2.1,1,3.5,0c0.9-0.6,1.1-1.6,1.3-2.2c0.2-0.8,0.4-1.8-0.1-2.5c-0.8-1-2.8-1.1-3.5,0c-0.5,0.7-0.3,1.7,0,2.4
			c0.4,0.8,1.2,1.1,1.2,1.2c-0.1,0.1-1.5-0.2-2.4-1.2c-1.4-1.5-1.6-4.7,0-5.9c1.7-1.3,4.8,0,6.1,2c0.9,1.4,1.3,3.5,0.3,5.1
			c-0.2,0.4-0.4,0.6-0.6,0.7c-1.4,1.3-4.1,2-6.5,1.1c-2-0.8-3.4-2.6-3.8-4.7c-0.5-2.4,0.7-4.3,1.1-4.9c0.2-0.4,1.1-1.6,2.6-2.5
			c0.3-0.2,3.6-1.9,6.7-0.4c4.2,2.1,3.7,8.3,3.6,8.7c-0.1,0.5-0.2,1.8-1,3.2c-0.3,0.6-1,1.8-2.5,2.8c-1.4,0.9-2.7,1.1-3.4,1.1
			c-3.3,0.3-5.8-1.3-6.2-1.6c-0.7-0.5-3.5-2.6-4-6.4c-0.5-4.1,2.1-7.1,2.8-7.8c0.5-0.5,1.9-1.8,4-2.4c4.1-1.1,9,1,11.4,4.8
			c0.3,0.5,2.4,4,1.2,8.3c-1.1,3.6-3.9,5.4-4.7,5.9c-2.9,1.8-5.8,1.6-6.7,1.5c-3.3-0.3-5.5-2-6.3-2.7c-2.5-2.2-3.2-4.8-3.5-5.9
			c-0.4-1.3-0.8-3.8,0-6.6c0.2-0.7,0.5-1.8,1.3-3c2.2-3.3,5.9-4.2,7-4.5c3.1-0.7,5.5-0.1,6.1,0c0.7,0.2,5.3,1.4,7.7,5.7
			c1,1.8,1.3,3.6,1.4,4.6c0.2,1,0.3,2.3,0.1,3.9c-0.1,0.6-0.4,2-1.2,3.5c-1.5,2.9-4,4.2-5.3,5c-1.2,0.7-3.7,2-7.2,1.9
			c-4.4-0.1-7.5-2.5-8.5-3.4c-2.4-2.1-3.4-4.4-4.1-6.3c-0.5-1.2-4.8-12.4,1.3-20.6c1.2-1.7,2.5-2.7,3.2-3.3
			c4.4-3.5,9.6-4.6,12.5-4.6c9.4,0.2,18.6,14.6,18.2,27.9c-0.3,9.4-5.4,23-17.3,25.9c-9.7,2.4-19.1-3.6-23.7-9.4
			c-4.4-5.5-5.4-11.9-5.8-14.2c-0.6-3.6-0.4-6.8,0-13c0.2-3.6,0.6-5.8,1.2-10.4c1.1-7.5,1.8-8.5,2.3-8.5
			C421.5,134.4,421.9,135,424.4,139.6z M480.3,168c-0.1,1.1-2,19.5-18.2,29.6c-0.6,0.4-13.8,8.2-28.5,4.6c-0.3-0.1-1.1-0.3-2.1-0.6
			c-7-2.1-11.9-4.7-14-5.8c-3.8-1.9-9.6-4.7-18.9-8.3c1.7-2.4,3.7-5.6,5.5-9.6c2.6-5.7,3.6-10.3,4-12c0.5-2.4,0.9-5.2,1.1-15
			c0.2-7.9,0.1-14,0-16.5c-0.2-11.5-0.4-17.3-1.2-22.4c-1-6.2-2.3-10.6-4.1-16.9c-0.5-1.7-2.7-9-6.5-18.5c-1.4-3.6-2.7-6.6-3.8-8.8
			c1-0.5,2.6-1.2,4.6-1.1c4.5,0.1,7.7,3.8,10.3,6.8c2.8,3.3,4.3,6.2,4.6,6.8c5.4,11.2,6.7,32.8,6.8,35.3c-1.5,14.4-3,28.9-4.6,43.3
			c-0.2,2.1-0.9,15.5,9.1,25.1c1.9,1.8,9.7,9.3,20.5,8c10.1-1.3,15.8-9.5,17.1-11.4c2.9-4.2,3.8-8.5,4.2-10.2
			c1.1-5,0.7-9.2,0.5-11.4c-0.2-1.6-0.4-3.7-1.2-6.4c-0.4-1.2-1.6-4.7-4.3-8.6c-0.8-1.1-1.7-2.5-3.3-4c-1.4-1.4-6.1-5.8-12.9-6.1
			c-1.1,0-5.2-0.1-9.1,2.3c0,0,0,0,0,0c-1.9,1.1-3.8,2.3-5.7,3.4c-1.5-2.9-2.9-5.8-4.4-8.6c3.4-2.5,9.3-5.9,16.9-6.2
			c14.8-0.5,25.4,11.4,27.3,13.7C472.3,141.1,481.6,152,480.3,168z"/>
	</g>
	
		<linearGradient id="SVGID_00000005976833098161163960000011837320219735741350_" gradientUnits="userSpaceOnUse" x1="146.5573" y1="169.4177" x2="250.3911" y2="65.584">
		<stop  offset="0" style="stop-color:#544930"/>
		<stop  offset="0.1638" style="stop-color:#FCCE85"/>
		<stop  offset="0.2297" style="stop-color:#FCCF88;stop-opacity:0.9944"/>
		<stop  offset="0.2743" style="stop-color:#FCD391;stop-opacity:0.9906"/>
		<stop  offset="0.3126" style="stop-color:#FDDAA0;stop-opacity:0.9874"/>
		<stop  offset="0.3474" style="stop-color:#FDE3B5;stop-opacity:0.9845"/>
		<stop  offset="0.3794" style="stop-color:#FEEFD1;stop-opacity:0.9817"/>
		<stop  offset="0.4" style="stop-color:#FFF8E7;stop-opacity:0.98"/>
		<stop  offset="0.4157" style="stop-color:#F6EAD4;stop-opacity:0.9811"/>
		<stop  offset="0.4494" style="stop-color:#E6D1B1;stop-opacity:0.9835"/>
		<stop  offset="0.4853" style="stop-color:#D8BC95;stop-opacity:0.9861"/>
		<stop  offset="0.5236" style="stop-color:#CEAC7F;stop-opacity:0.9888"/>
		<stop  offset="0.5653" style="stop-color:#C7A16F;stop-opacity:0.9918"/>
		<stop  offset="0.6129" style="stop-color:#C29A66;stop-opacity:0.9952"/>
		<stop  offset="0.6799" style="stop-color:#C19863"/>
		<stop  offset="0.7371" style="stop-color:#B48F5D"/>
		<stop  offset="0.8432" style="stop-color:#91764D"/>
		<stop  offset="0.9856" style="stop-color:#5A4D33"/>
		<stop  offset="1" style="stop-color:#544930"/>
	</linearGradient>
	<path style="fill:url(#SVGID_00000005976833098161163960000011837320219735741350_);" d="M217.7,171.1c-5.2,2.1-10,3-14.9,4
		c-4.5,0.9-8.3,1.4-10.9,1.6c-0.6-0.5-1.6-1.3-2.5-2.5c-2.7-3.7-2.5-8-2.5-10c0.2-6,0-17.2,0-32c0.6-0.1,1.1-0.2,1.7-0.3
		c3,0,5.8,0.1,8.4,0.4c1.8,0.2,4.1,0.5,6.8,1.1c2.3,0.6,5.5,1.6,9.1,3.4c4.4-6.2,8.8-12.4,13.1-18.6c-1.2,0-37.1,0-37.2,0
		c0,0-1,0-1.9,0c0-12.9,0-25.9,0-38.8c1.1-2.3,4.7-8.9,11.6-10.7c1.5-0.4,3.1-0.4,5.1-0.4c13.1,0.2,21.1,8.5,22.4,10
		c0,2.5,0,5,0,7.5c1.9,0,3.8,0,5.7,0c5.6-7.5,11.1-14.9,16.7-22.4c-20.2,0-40.4,0-60.6,0h-21.6c1.5,5.7,2.6,11.2,3.2,16.6
		c0.6,5.3,0.9,11.9,0.9,19.8v52.8c0,8-0.3,14.7-0.9,20c-0.6,5.3-1.6,10.8-3.1,16.4h21.5c8.7-0.3,17.5-0.6,26.2-1
		c6.5-9,13-17.9,19.6-26.9C227.3,166.7,221.6,169.5,217.7,171.1z M180.4,78.5c0.2-0.5,0.8-1.9,1.8-3.5v43.3c-0.6,0-1.8,0-1.8,0
		C180.4,105.1,180.4,91.8,180.4,78.5z M180.4,133.3c0.6,0,1.2-0.1,1.8-0.1c0,14.7,0,29.3,0,44c-0.6-0.5-1.2-1-1.8-1.6
		C180.4,161.5,180.4,147.4,180.4,133.3z"/>
	
		<linearGradient id="SVGID_00000005964860156319628190000012856919221192170633_" gradientUnits="userSpaceOnUse" x1="514.3737" y1="209.0528" x2="558.4683" y2="156.5029" gradientTransform="matrix(0.9994 3.414306e-02 -3.414306e-02 0.9994 -2.9578 -65.4469)">
		<stop  offset="0" style="stop-color:#544930"/>
		<stop  offset="0.1638" style="stop-color:#FCCE85"/>
		<stop  offset="0.2297" style="stop-color:#FCCF88;stop-opacity:0.9944"/>
		<stop  offset="0.2743" style="stop-color:#FCD391;stop-opacity:0.9906"/>
		<stop  offset="0.3126" style="stop-color:#FDDAA0;stop-opacity:0.9874"/>
		<stop  offset="0.3474" style="stop-color:#FDE3B5;stop-opacity:0.9845"/>
		<stop  offset="0.3794" style="stop-color:#FEEFD1;stop-opacity:0.9817"/>
		<stop  offset="0.4" style="stop-color:#FFF8E7;stop-opacity:0.98"/>
		<stop  offset="0.4157" style="stop-color:#F6EAD4;stop-opacity:0.9811"/>
		<stop  offset="0.4494" style="stop-color:#E6D1B1;stop-opacity:0.9835"/>
		<stop  offset="0.4853" style="stop-color:#D8BC95;stop-opacity:0.9861"/>
		<stop  offset="0.5236" style="stop-color:#CEAC7F;stop-opacity:0.9888"/>
		<stop  offset="0.5653" style="stop-color:#C7A16F;stop-opacity:0.9918"/>
		<stop  offset="0.6129" style="stop-color:#C29A66;stop-opacity:0.9952"/>
		<stop  offset="0.6799" style="stop-color:#C19863"/>
		<stop  offset="0.7371" style="stop-color:#B48F5D"/>
		<stop  offset="0.8432" style="stop-color:#91764D"/>
		<stop  offset="0.9856" style="stop-color:#5A4D33"/>
		<stop  offset="1" style="stop-color:#544930"/>
	</linearGradient>
	<path style="fill:url(#SVGID_00000005964860156319628190000012856919221192170633_);" d="M541,111.6c-0.9,0-0.3,5.1-2.6,12.3
		c-0.8,2.6-1.9,4.8-3.7,8.9c-0.6,1.3-1.1,2.5-1.7,3.6c-0.8-1.2-1.5-2-3.7-4.9c-1-1.3-1.8-2.5-2.6-3.6c2.1-2.9,4-6,6.3-8.8
		c0.4-0.4,2.7-3.3,2.4-3.6c0,0-0.1,0-0.3,0c2.2-1.7,3.5-4.5,3.2-7.2c-0.2-1.6-0.7-2.3-0.7-2.3c-0.3-0.4-0.5-0.6-0.5-0.8
		c0.2-0.4,1.6,0.2,2.9-0.3c1.3-0.5,2-1.9,1.9-2.1c-0.2-0.2-1.1,1-2.9,1.2c-1.8,0.2-3.4-0.6-4-1c-0.7-0.4-1-0.7-1.5-1
		c-2-1.4-5.8-2.6-8.6-1.4c-0.9,0.4-1.4,0.8-3.2,1.5c-0.5,0.2-1.1,0.4-1.9,0.6c-2.2,0.5-3.3,0.2-5.1,1.2c-0.7,0.4-2.1,1.2-2.4,2.7
		c0,0.2-0.3,1.6,0.5,2.4c0.5,0.5,1.2,0.5,1.4,1c0.1,0.3-0.1,0.7-0.3,1c0.2,0.5,0.6,1.1,1.3,1.6c1.6,1.1,3.2,0.1,5.2,0.5
		c3.1,0.6,3.1,2.8,6.3,3.9c0.3,0.1,2.1,0.7,4.3,0.4c0.4,0.2,0.8,0.6,1,1c0.3,0.9-0.7,2-1.5,2.7c-1.1,1.4-2.6,3.5-4.5,6
		c-0.8-1.1-1.5-2.1-2-2.9c-0.4-0.7-0.9-1.6-1.5-2.7c-3.4-6.3-3.6-6.5-3.6-6.5c-0.2,0.1,0.9,3.6,2.7,7.2c1.2,2.4,2.3,4.1,3.7,5.8
		c-0.1,0.1-0.2,0.2-0.3,0.3c-2.5,3.1-3.1,3.8-4.1,5.1c-0.6,0.8-1,1.6-1.5,2.3c-1.7-4.1-2.7-6.4-3.4-9c-2.1-7.2-1.4-12.3-2.3-12.3
		c-0.6-0.1-1.4,2.5-2.3,5.8c-0.8,2.7-1.2,4.4-1.5,6.8c-0.4,3-0.8,6.9,0.6,11.3c0.7,2.1,1.8,4.1,2.7,5.9c0.6,1.1,1.4,2.5,1.9,3.4
		c-0.9,4.1-1.8,9.6,0.1,15.8c0.6,2.2,1.5,3.9,2.1,5c1.1-2.6,2.4-5.8,3.8-9.2c0.8,1.6,0.8,1.5,1.7,3.6c2.4,5.3,2.6,7,2.4,8.5
		c-0.1,0.8-0.3,1.6-0.5,2.1c-1.1,0.6-1.8,1.8-1.7,3.2c0.1,1.9,1.8,3.3,3.7,3.2c1.9-0.1,3.3-1.8,3.2-3.7c-0.1-1.3-0.9-2.4-2-2.9
		c-0.3-0.7-0.9-2-1-3.8c0-1.8,0.5-3.3,1.4-5.3c0.5-1.3,0.8-1.7,2.3-4.5c0.1-0.3,0.3-0.5,0.4-0.7c1.9,4.8,3.6,9.3,4.9,12.8
		c0.6-1.1,1.5-2.8,2.2-5c2.4-7.5,1-14,0-18.2c-0.2-0.7-0.3-1.4-0.5-2.2c0.2-0.3,0.4-0.6,0.7-1.1c0.4-0.7,1.7-2.7,2.5-4.1
		c1-1.7,2.2-3.7,2.9-5.8c1.6-4.3,1.3-8.3,1-11.3c-0.2-2.4-0.6-4.1-1.3-6.8C542.2,114.1,541.6,111.6,541,111.6z M526.2,115.4
		c-2.9-1.3-2.9-2.8-5.4-3.3c-1.8-0.4-3.1,0.5-4.4-0.4c-0.6-0.4-0.9-0.9-1.1-1.3c0.5,0,1.2,0.1,2,0.1c0.7,0,2,0,2-0.1
		c0-0.1-0.8-0.3-3.1-0.8c-1.3-0.3-1.6-0.4-2-0.8c-0.5-0.5-0.6-1.4-0.5-2c0.4-1.5,2.1-2,2.5-2.1c1.6-0.5,2.1,0.3,3.4-0.2
		c1.1-0.4,0.9-1,2.5-1.9c0.2-0.1,1-0.6,2.3-0.9c0,0,1.4-0.4,2.8-0.3c2.7,0.1,8.9,2.9,9.2,8c0.1,2.2-0.9,4.9-3,6.2
		C530.5,117.4,526.9,115.8,526.2,115.4z M525.7,129c0,0,0.1-0.1,0.1-0.1c0.7,1,1.5,2.1,2.4,3.3c1.6,2.3,2.9,4.2,3.9,5.7
		c-0.2,0.4-0.4,0.7-0.6,1.1c-2.6,4.8-3.6,5.2-5.9,8.9c-1.1-1.5-2-2.8-3.6-5.9c-0.9-1.7-1.5-3.2-2.2-4.9
		C521,135.4,522.9,132.8,525.7,129z M514.8,145.6c-2.6-4.8-3.1-5.5-3.6-7.3c-1-3.3-0.9-6.1-0.8-7.7c0.1-2.4,0.5-4,1.2-6.9
		c0.7-2.8,1-4.2,1.5-4.2c0.8,0,1,3.4,2.6,8.9c0.6,2.2,1.5,5.1,2.9,8.4c-1.6,3.2-2.4,6.1-3,8.4c-0.1,0.4-0.2,0.8-0.3,1.2
		C515.1,146.2,515,145.9,514.8,145.6z M519.2,160.5c-0.6,1.6-1.6,4.5-2.2,4.4c-0.2,0-0.3-0.5-0.5-1.8c-0.4-1.9-0.7-2.7-0.8-3.3
		c-0.8-4-0.6-7.9,0-11.2c0.7,1.2,0.8,1.4,1.2,2.1c1.1,2,1.4,2.7,3.4,7.1C519.9,158.7,519.5,159.6,519.2,160.5z M520.7,156.8
		c-0.8-1.5-1.7-3.2-2.7-5c-0.8-1.4-1.5-2.8-2.3-4.2c1-5.1,2.8-8.6,2.8-8.6c0.1-0.2,0.3-0.5,0.5-0.9c0.3,0.6,0.6,1.3,1,1.9
		c1.2,2.3,2.7,4.6,3.3,5.6c0.8,1.2,1.4,2.1,1.9,2.8c-0.2,0.3-0.3,0.6-0.5,0.9C523.3,151.8,522,154.1,520.7,156.8z M528.8,176.3
		c0.1,1.4-1,2.7-2.4,2.7c-1.4,0.1-2.7-1-2.7-2.4c0-0.3,0-0.6,0.1-0.9c0.3-0.4,0.7-0.9,1.1-1.4c0.4-0.2,0.8-0.4,1.2-0.4
		C527.5,173.8,528.7,174.9,528.8,176.3z M527.2,173.1c-0.4-0.1-0.8-0.2-1.2-0.1c-0.2,0-0.3,0-0.5,0.1c0.1-0.3,0.3-0.6,0.4-0.9
		c0.1-0.3,0.2-0.6,0.2-0.9C526.5,172,526.9,172.7,527.2,173.1z M527.2,164.3c-0.5,0.8-1.2,2.1-1.4,3.8c-0.6-2-1.9-5.1-4.4-10
		c0.5-1.3,1.1-2.5,1.7-3.8c0.9-1.9,1.6-3.5,2.6-5.3c0.5,0.8,1,1.4,1.5,2.4c1.3,2.2,2,3.9,2.9,6.2c0.1,0.3,0.2,0.6,0.4,0.9
		C529.5,160.4,528.4,162.4,527.2,164.3z M528.5,152.5c-1-1.9-1.8-3.1-2.5-4.1c0.1-0.1,0.1-0.2,0.1-0.2c1.3-2,2-2.8,3.9-5.6
		c0.5-0.7,1.5-2.2,2.6-3.9c1.4,2,2.1,3.2,2.4,3.8c0,0,0.8,1.6,1.5,4.3c-0.4,0.8-0.9,1.5-1.3,2.2c-1.6,2.7-2.9,5.5-4.2,8.3
		C530.2,155.6,529.4,154.1,528.5,152.5z M537.3,163.4c-0.1,0.6-0.5,1.4-0.9,3.2c-0.3,1.3-0.3,1.8-0.6,1.8c-0.6,0.1-1.5-2.9-2.1-4.5
		c-0.8-2.3-1.6-4.2-2.5-6c0.4-0.7,0.8-1.5,1.3-2.6c2.4-4.7,2.6-5.4,3.9-7.4c0.1-0.2,0.2-0.3,0.3-0.4
		C537.8,151.5,538.7,157.4,537.3,163.4z M543.6,128c0,1.6,0,4.4-1.1,7.7c-0.6,1.7-1.1,2.4-3.8,7.2c-0.5,0.9-1.1,1.9-1.6,2.8
		c-0.7-2.5-1.7-5.4-3.6-8.4c0-0.1,0.1-0.1,0.1-0.2c2.6-4.6,4-8.7,4.9-11.5c1.7-5.5,2.1-8.9,2.9-8.8c0.5,0,0.8,1.4,1.4,4.3
		C543.3,123.9,543.6,125.6,543.6,128z"/>
	
		<linearGradient id="SVGID_00000090284271144539977990000008472530196981738934_" gradientUnits="userSpaceOnUse" x1="487.0493" y1="181.7081" x2="583.2075" y2="67.1111">
		<stop  offset="0" style="stop-color:#544930"/>
		<stop  offset="0.1638" style="stop-color:#FCCE85"/>
		<stop  offset="0.2297" style="stop-color:#FCCF88;stop-opacity:0.9944"/>
		<stop  offset="0.2743" style="stop-color:#FCD391;stop-opacity:0.9906"/>
		<stop  offset="0.3126" style="stop-color:#FDDAA0;stop-opacity:0.9874"/>
		<stop  offset="0.3474" style="stop-color:#FDE3B5;stop-opacity:0.9845"/>
		<stop  offset="0.3794" style="stop-color:#FEEFD1;stop-opacity:0.9817"/>
		<stop  offset="0.4" style="stop-color:#FFF8E7;stop-opacity:0.98"/>
		<stop  offset="0.4157" style="stop-color:#F6EAD4;stop-opacity:0.9811"/>
		<stop  offset="0.4494" style="stop-color:#E6D1B1;stop-opacity:0.9835"/>
		<stop  offset="0.4853" style="stop-color:#D8BC95;stop-opacity:0.9861"/>
		<stop  offset="0.5236" style="stop-color:#CEAC7F;stop-opacity:0.9888"/>
		<stop  offset="0.5653" style="stop-color:#C7A16F;stop-opacity:0.9918"/>
		<stop  offset="0.6129" style="stop-color:#C29A66;stop-opacity:0.9952"/>
		<stop  offset="0.6799" style="stop-color:#C19863"/>
		<stop  offset="0.7371" style="stop-color:#B48F5D"/>
		<stop  offset="0.8432" style="stop-color:#91764D"/>
		<stop  offset="0.9856" style="stop-color:#5A4D33"/>
		<stop  offset="1" style="stop-color:#544930"/>
	</linearGradient>
	<path style="fill:url(#SVGID_00000090284271144539977990000008472530196981738934_);" d="M576.3,61.3c-1.8-1.6-8.2,6.5-19.5,8
		c-4.5,0.6-8.8,0-9.2,0c-3.8-0.5-5.1-1.4-9.2-2.3c-1.2-0.3-6.1-1.3-11.5-1.1c0,0-7.6,0.2-14.9,3.4c-12.4,5.5-18.4,18.2-21.8,25.2
		c-7.9,16.3-8.1,31-8,40.7c0,8.2,1.1,31.3,13.8,51.1c4.5,7.1,9.1,11.1,13.8,13.8c2.6,1.5,8.8,4.9,17.2,4.6
		c8.7-0.3,14.8-4.4,18.3-6.9c3.9-2.7,8.2-6.7,12.6-13.8c11.7-18.7,12.5-40.5,12.6-47c0.1-13.1,0.4-34.2-12.6-50.5
		c-3.4-4.2-9.5-10.5-8-12.6c0.3-0.4,1.3-1.3,10.3,1.1c11.9,3.3,18.4,7.2,19.5,5.7c1-1.4-4.3-4.8-4.6-11.5
		C574.9,64.7,577.4,62.3,576.3,61.3z M547.3,86.5c1.5,2.2,3.3,5.7,5.1,13.8c2.4,11.5,2.2,21.3,2,29.8c-0.3,12.5-1.7,21.6-3,29.8
		c-2.2,14.1-4.3,20-6.1,24.1c0,0-3.1,7.1-9.1,13.6c-0.8,0.9-1.9,2-3.5,2.9c-2,1.1-4.1,1.7-6.6,1.7c-3.3,0-6.1-1-8.5-3.1
		c-3.1-2.7-4.7-6.2-5.8-8.5c-3.4-7.2-3.6-5.8-5.9-11.1c-1.6-3.7-3.1-8-5.1-17.2c-2.2-10.4-3.6-17-4-26.4c-0.4-8.4,0.8-16.7,3-33.3
		c0.1-0.8,1.9-13.2,6.1-20.6c1.8-3.1,4-5.7,4-5.7c1.4-1.6,2.8-3.2,5.1-4.6c2.1-1.3,3.9-1.7,6.1-2.3c1.8-0.5,3.2-0.8,5-0.9
		c1.7-0.1,6-0.1,9,2.9c0.7,0.7,1.1,1.1,1.1,1.6c-0.1,1.8-4.7,1.8-10.1,5.6c-2.1,1.4-3.6,3-4.8,4.2c-1.6,1.6-2.9,2.9-4.3,5
		c-2.2,3.3-3.3,6.7-3,6.9c0.3,0.2,2.2-5.6,7.6-10.5c1-0.9,2.4-2.2,4.5-3.3c1.4-0.8,7.8-4.1,14.2-1.1
		C543.8,81.3,545.8,84.3,547.3,86.5z"/>
	<g>
		<path class="st17" d="M328.3,165.1c0.3-0.9-0.8-2.3-2.1-2.8c-1.3-0.5-2.6,0.1-3.8,0.7c-0.8,0.4-1.4,0.6-1.4,1.1
			c0,0.8,1.9,1.5,3.5,1.7C324.9,165.9,327.9,166.3,328.3,165.1z"/>
		
			<linearGradient id="SVGID_00000182489960043167532470000013993314434039593644_" gradientUnits="userSpaceOnUse" x1="312.0504" y1="176.1884" x2="392.753" y2="80.0108">
			<stop  offset="0" style="stop-color:#544930"/>
			<stop  offset="0.1638" style="stop-color:#FCCE85"/>
			<stop  offset="0.2297" style="stop-color:#FCCF88;stop-opacity:0.9944"/>
			<stop  offset="0.2743" style="stop-color:#FCD391;stop-opacity:0.9906"/>
			<stop  offset="0.3126" style="stop-color:#FDDAA0;stop-opacity:0.9874"/>
			<stop  offset="0.3474" style="stop-color:#FDE3B5;stop-opacity:0.9845"/>
			<stop  offset="0.3794" style="stop-color:#FEEFD1;stop-opacity:0.9817"/>
			<stop  offset="0.4" style="stop-color:#FFF8E7;stop-opacity:0.98"/>
			<stop  offset="0.4157" style="stop-color:#F6EAD4;stop-opacity:0.9811"/>
			<stop  offset="0.4494" style="stop-color:#E6D1B1;stop-opacity:0.9835"/>
			<stop  offset="0.4853" style="stop-color:#D8BC95;stop-opacity:0.9861"/>
			<stop  offset="0.5236" style="stop-color:#CEAC7F;stop-opacity:0.9888"/>
			<stop  offset="0.5653" style="stop-color:#C7A16F;stop-opacity:0.9918"/>
			<stop  offset="0.6129" style="stop-color:#C29A66;stop-opacity:0.9952"/>
			<stop  offset="0.6799" style="stop-color:#C19863"/>
			<stop  offset="0.7371" style="stop-color:#B48F5D"/>
			<stop  offset="0.8432" style="stop-color:#91764D"/>
			<stop  offset="0.9856" style="stop-color:#5A4D33"/>
			<stop  offset="1" style="stop-color:#544930"/>
		</linearGradient>
		<path style="fill:url(#SVGID_00000182489960043167532470000013993314434039593644_);" d="M386.3,135.6c-0.2,0.4-0.6,0.9-1.2,1.2
			c-0.4,0.2-1.3,0.4-3.2-0.6c-1.7-0.9-2.7-1.9-3.9-3.1c0,0-0.6-0.6-3.8-3.6c-1.5-1.4-3.8-3.2-7.3-4.9c1.5-1.3,3.7-3.1,6.3-5.5
			c6.2-5.6,9.4-8.4,10.8-10.4c5.4-7.3,5.1-16,5.1-18.3c-0.3-10.6-5.7-17.7-7.5-19.9l0,0c-8.3-7.3-19.6-9.5-19.6-9.5
			c0,0-3.6-1-7.3-1.2c-1.4-0.1-2.6-0.1-3.7,0c-0.2-0.1-1.3-0.5-1.8-1.8c-0.5-1.2-0.1-2.3,0-2.5c-5.2,1.7-8.2,3.5-10,5
			c-1.5,1.2-2.5,2-3.4,2.7c-1.2,0.9-2,1.5-2.3,1.8c-1.4,1-3.3,2.7-5.7,5.7c-0.7-2.6-1.5-5.1-2.2-7.7c-1.8,1-6.4,4-8.8,9.9
			c-4.1,10,2,19.3,2.5,20.1c4.8-1.9,9.8-4.2,15.1-6.9c3.5-1.8,6.8-3.7,9.9-5.5c-2.5-1.2-4.9-2.4-7.4-3.6c0.9-1.4,4-5.7,9.6-7.2
			c5.9-1.5,10.9,1.2,13.8,2.8c6.1,3.3,8.9,8.3,9.6,9.6c0.8,1.6,2.9,5.6,2.8,11c-0.2,7.7-4.9,12.9-6.9,15.2c-2.6,3-5.3,4.7-6.3,5.3
			c-2.4,1.5-2.8,1.2-8,3.5c-6.3,2.8-8.3,4.2-9.6,6.1c-0.6,0.8-1.3,1.9-1.7,3.5c-0.5,1.9-0.4,3.5-0.2,4.4c3.2-0.1,8.4,0,14.3,2.2
			c1.4,0.5,5.5,2.1,9.9,5.5c4,3.1,12.2,9.4,14.1,20.5c0.4,2.4,1.9,13-5.5,22c-2.3,2.8-9.6,10.5-20.7,9.6
			c-10.7-0.9-16.7-9.2-17.8-10.8c0.3-0.1,0.6-0.2,0.8-0.4c1-0.8,0.7-1.7,1.6-2.3c0.9-0.6,2.3-0.2,4.9,0.7c5.3,1.8,5.5,1.9,6.5,2.1
			c3.7,0.8,4.7,1.1,5.7,0.7c0.2-0.1,0.9-0.3,0.9-0.6c0-0.3-1.1-0.6-1.3-0.6c-0.2,0-0.5-0.1-0.9-0.1c-2.8-0.3-4,0-5.2-0.1
			c-3-0.2-5.7-2.8-5.4-3.9c0.1-0.4,0.7-0.8,2.6-0.8c-0.1-0.1-0.2-0.3-0.4-0.6c-1.4-1.9-3.1-2.6-4.1-3.3c-2-1.2-3-2.9-4.2-4.9
			c-1.7-2.9-1.3-4-3-5.4c-0.7-0.6-1.7-1.2-3.5-1.7c-1.1-0.3-2.1-0.5-2.9-0.5c-4.2-0.2-4.7,0.7-7.1,0.3c-2.9-0.4-3.4-1.9-8.7-3.6
			c-0.4-0.1-1.1-0.3-2-0.4c-0.9-0.1-3.6-0.2-5.2,1.8c-1.1,1.3-1.6,3.7-0.7,4.9c1.2,1.6,4.1,0.6,4.7,1.9c0.4,1-1.1,1.9-0.8,3.5
			c0.2,1.2,1.2,1.8,3.6,3.2c5.8,3.3,6.6,3.6,8.1,4.9c1.2,1.2,1.9,2.2,3.2,4.2c0.8,1.3,1,1.8,1.5,2.6c1.3,2.4,2.6,4,3.6,5.2
			c1.3,1.6,3.9,4.9,7.3,7.3c4.4,3.2,8.9,4,12.3,4.6c4.4,0.7,19.2,2.6,33-6.3c2.2-1.4,8.2-5.4,12.5-12.5c1.4-2.3,2.2-4.3,2.5-5
			c2.4-5.9,2.5-11,2.5-12.5c0-6.2-1.8-10.8-2.5-12.5c-0.4-1-1.1-2-1.1-2c-0.5-0.9-1-1.7-1.4-2.3c-0.9-1.4-1.6-2.4-1.7-2.6
			C388.9,142.1,387.8,140,386.3,135.6z M326.7,85.5c-2.3,1-4.4,1.8-6.4,2.5c-0.9-1.2-2.1-3.3-2.4-6.1c-0.8-6.9,4.8-11.8,5.4-12.3
			c0.3,1.3,1,4.1,3.3,6.6c3.3,3.7,7.6,4.3,8.8,4.4C333,82.2,330.1,83.9,326.7,85.5z M355.1,126.4c-3.3-0.1-6,0.3-7.9,0.7
			c0.7-0.6,1.7-1.3,3-2c0.7-0.3,2.5-1.2,4.5-1.2c3.9-0.1,7.3,2.6,7.1,3.2C361.7,127.6,359.3,126.6,355.1,126.4z M358.2,118.5
			c-0.4-0.1-0.8-0.2-1.2-0.3c-0.3-0.1-0.6-0.1-0.9-0.2c2.1-1,5.2-2.7,8.3-5.6c2.1-2,9.3-8.7,9.6-19.3c0.1-2.4,0-10-5.5-16.5
			c-0.8-1-3.6-4.2-8.5-6.4c-2.2-1-7.2-3.3-13.6-1.9c-6.6,1.4-10.3,5.9-11.5,7.3c-0.8-0.4-1.6-0.8-2.4-1.2c1-1.4,6.1-7.9,15-9.3
			c7.2-1.2,13.2,1.6,14.7,2.3c1,0.5,8.6,4.2,12.3,12.7c0.3,0.7,0.5,1.3,0.7,1.6c4.2,11-0.7,20.9-2.1,23.4c-0.8,1.4-3.1,5.4-7.5,8.9
			C362.8,116.4,360.1,117.7,358.2,118.5z M322,174.2c-0.7,0-1.6,0.2-2.4-0.3c-0.6-0.4-0.8-1-1.1-1.4c-1.2-2.2-4.2-2.1-8.1-4.9
			c-0.5-0.3-1.1-0.8-1.1-1.4c0.1-0.5,0.8-1,1.4-1.1c1.1-0.2,1.6,0.9,3.5,1.7c0.7,0.3,2.8,1.3,3.7,0.5c0.6-0.5,0.7-1.6,0.3-2.4
			c-1-2.9-7.4-4.8-11.9-4.2c-0.6,0.1-1.9,0.3-2.4-0.3c-0.5-0.6-0.2-1.8,0.3-2.4c1.1-1.2,3.3-0.8,5.1-0.5c2.4,0.4,2.8,1,7.2,2.3
			c2.3,0.7,3,0.7,3.9,0.7c1.5-0.1,2-0.7,3.7-0.8c1.7-0.2,3,0.3,3.7,0.5c3.2,1.1,4.9,3.5,5.6,4.5c1.3,1.9,0.8,2.2,1.9,4
			c2.6,4.1,6.9,4.9,6.7,5.9c-0.2,0.8-2.8,0.8-3.8,0.7c-1.1-0.1-2.8-0.4-4.3-0.7c-1.1-0.2-1.7-0.4-1.8-0.2c-0.2,0.5,2.4,1.8,2.1,2.8
			c-0.2,0.7-1.6,0.9-2.6,0.9c-1.3,0-1.9-0.5-4.7-1.9C324.2,174.8,322.9,174.2,322,174.2z M328,180.9c-0.2,1-1.1,1.6-2.1,1.4
			c-1-0.2-1.6-1.1-1.4-2.1c0.2-1,1.1-1.6,2.1-1.4C327.6,179,328.2,180,328,180.9z M383.3,174.2c-3.2,9.6-11.2,14.3-13.5,15.6
			c-6.5,3.7-12.5,4-13.7,4.1c-3.1,0.1-9.7-0.2-16.2-4.4c-4.7-3-7.4-6.8-8.7-8.9c0.2-0.1,0.4-0.2,0.5-0.3c0.7,1.1,7.8,11.6,21,12.2
			c13.6,0.7,21.7-9.7,22.7-11c5.9-7.8,5.6-16.2,5.5-18.6c-0.7-14.5-12-22.8-13.8-24.1c0.2-0.5,0.4-1,0.7-1.5c0.5-1,0.9-1.9,1.4-2.8
			c1.4,1.1,3.3,2.7,5.3,4.8c1.6,1.7,4.4,4.3,6.3,8.4c1.6,3.4,3.9,9.3,3.9,16.8C384.7,166.8,384.6,170.1,383.3,174.2z"/>
		<path class="st17" d="M526.8,106.3c0.2-0.4-0.9-1.5-2.1-1.7c-0.8-0.1-1.5,0.2-1.8,0.3c-0.4,0.2-0.7,0.3-0.7,0.5
			c0,0.5,1.9,0.8,2.1,0.9C525.2,106.5,526.7,106.7,526.8,106.3z"/>
	</g>
	
		<linearGradient id="SVGID_00000010990293322907824650000009532067007729467567_" gradientUnits="userSpaceOnUse" x1="48.1251" y1="160.3514" x2="151.1364" y2="37.5873">
		<stop  offset="0" style="stop-color:#544930"/>
		<stop  offset="0.1638" style="stop-color:#FCCE85"/>
		<stop  offset="0.2297" style="stop-color:#FCCF88;stop-opacity:0.9944"/>
		<stop  offset="0.2743" style="stop-color:#FCD391;stop-opacity:0.9906"/>
		<stop  offset="0.3126" style="stop-color:#FDDAA0;stop-opacity:0.9874"/>
		<stop  offset="0.3474" style="stop-color:#FDE3B5;stop-opacity:0.9845"/>
		<stop  offset="0.3794" style="stop-color:#FEEFD1;stop-opacity:0.9817"/>
		<stop  offset="0.4" style="stop-color:#FFF8E7;stop-opacity:0.98"/>
		<stop  offset="0.4157" style="stop-color:#F6EAD4;stop-opacity:0.9811"/>
		<stop  offset="0.4494" style="stop-color:#E6D1B1;stop-opacity:0.9835"/>
		<stop  offset="0.4853" style="stop-color:#D8BC95;stop-opacity:0.9861"/>
		<stop  offset="0.5236" style="stop-color:#CEAC7F;stop-opacity:0.9888"/>
		<stop  offset="0.5653" style="stop-color:#C7A16F;stop-opacity:0.9918"/>
		<stop  offset="0.6129" style="stop-color:#C29A66;stop-opacity:0.9952"/>
		<stop  offset="0.6799" style="stop-color:#C19863"/>
		<stop  offset="0.7371" style="stop-color:#B48F5D"/>
		<stop  offset="0.8432" style="stop-color:#91764D"/>
		<stop  offset="0.9856" style="stop-color:#5A4D33"/>
		<stop  offset="1" style="stop-color:#544930"/>
	</linearGradient>
	<path style="fill:url(#SVGID_00000010990293322907824650000009532067007729467567_);" d="M153.2,66.8c4.4-1.3,7.2-8,7.2-16.2
		c0-1.7,0-3.5,0-5.2c-16.2,0-32.5,0-48.7,0c-6.2,0-12.4,0-18.6,0c-1.9,0-3.8,0-5.7,0c0,0-0.1,0-0.1,0c-0.1-0.3-0.2-0.7-0.2-1
		c-0.1-0.4-0.1-0.7-0.1-0.8c0,0,0-0.1,0-0.1c0-0.4-6.2-3.7-14.8-3.1c-2.5,0.2-12.1,1-17.8,9.2c-0.8,1.1-5.8,8.6-2.8,17.1
		c2,5.7,6.4,8.6,7.3,9.1c1.3,0.8,5.5,3.1,11,2.4c2.1-0.3,6.8-0.8,9.8-4.9c3.9-5.2,1.5-11.6,1.2-12.2c-0.5-1.2-2.3-5.9-7.3-7.3
		c-4.5-1.3-8.1,1-8.6,1.2c-3.1,2-5.3,5.7-4.9,9.8c0.3,3.8,2.8,7.1,6.1,8.6c0.4,0.2,3.6,1.5,7.1,0.2c0.7-0.2,2.5-0.9,3.9-2.7
		c0.3-0.4,1-1.2,1.2-2.4c0.3-1.1,0.1-2,0-2.4c-0.1-0.6-0.9-4-3.7-4.9c-2.8-0.9-6.2,1.2-6.1,2.4c0.1,0.8,1.6,1.6,2.4,1.2
		c0.8-0.4,0.3-1.6,1.2-2.4c0.9-0.8,2.6-0.8,3.7,0c0.8,0.6,1,1.5,1.2,2.4c0.1,0.7,0.9,3.9-1.2,6.1c-1,1.1-2.2,1.4-2.7,1.5
		c-3.1,0.9-7.4-0.6-9.6-4c-1.8-2.7-2.2-6.8,0-9.8c2.6-3.6,7.6-3.8,11-2.4c4.3,1.8,6.1,6.3,6.1,9.8c0,0.5,0,4.5-3,7.6
		c-4.6,4.7-12.8,4.1-17.8,1c-0.5-0.3-2.9-1.8-4.9-4.9c-3.1-4.8-2.6-9.7-2.5-11c0.6-5.1,3.8-11.6,10-13.6c0.6-0.2,4.3-1.3,8.3,0.1
		c3.3,1.2,5.3,3.5,8.6,7.3c0.2,0.3,2.3,2.7,3.7,4.9c5.1,8.2,4.5,19.8,4.3,22.6c0,0,0,0,0,0c0,41-0.2,53.8,0,77.3
		c0,3.3,0.1,8.6,0.2,15.2c0.1,0.7,0.1,1.8,0.1,3c0,1.5-0.1,4.5-1,8.9c-1,5-2,6.7-1.2,7.3c0.4,0.4,1,0.1,4.9-1.2
		c1.9-0.6,2.9-1,3.7-1.2c6-2,13.3,3.8,14.8,1.9c0,0,0.1-0.1,0.1-0.1c0.8-1.6-0.5-3.7-1.3-5.6c-1-2.3-1.1-4.7-1.3-9.7
		c-0.1-1.8,0-3.2,0-4.1c0-0.3,0,0,0-15.3c0-0.5,0-87.7,0-91.9c0.3-1.4,1.9-8.4,8.1-12c4.3-2.5,8.9-2.2,10.6-2.2
		c1.7,0,3.3,0.3,4.8,0.8c5.2,1.7,6,5.9,10.6,10C142.1,62.6,148.2,68.2,153.2,66.8z M94,186.7c-1.5,0.5-3.1,1-4.6,1.5
		c0.9-1.8,2-4.3,2.2-7.4c0.1-1.4,0-2.5,0-2.8c-0.2-2.1-0.2-36-0.2-103.7c0,0,0,0,0,0c0,0,0,0,0,0c0,0-0.4-18.2-3.2-19.1
		c-0.4-0.1-0.8,0.1-1.3-0.3c-0.8-0.5-1-1.6-1.2-2.4c-0.2-1.2-0.6-2.8-1.2-4.9c1.7,1.1,4,2.7,6.1,5.3c1,1.2,1.7,2.4,2.3,3.4
		C93.2,99.8,93.6,143.2,94,186.7z"/>
</g>
</svg>
